<?xml version="1.0" standalone="no"?>
<!DOCTYPE svg PUBLIC "-//W3C//DTD SVG 1.1//EN" "http://www.w3.org/Graphics/SVG/1.1/DTD/svg11.dtd" >
<svg xmlns="http://www.w3.org/2000/svg">
<metadata>Generated by IcoMoon</metadata>
<defs>
<font id="boatsetter" horiz-adv-x="1024">
<font-face units-per-em="1024" ascent="960" descent="-64" />
<missing-glyph horiz-adv-x="1024" />
<glyph unicode="&#x20;" horiz-adv-x="512" d="" />
<glyph unicode="&#xe900;" glyph-name="bs_account" d="M512 944c-273.933 0-496-222.067-496-496s222.067-496 496-496c273.933 0 496 222.067 496 496-0.364 273.787-222.213 495.636-495.965 496zM800 86.080c-64-64-178.56-102.080-288-102.080s-224 38.4-288 102.080v44.48c-0.002 0.211-0.003 0.461-0.003 0.71 0 29.221 15.793 54.753 39.309 68.527l164.535 93.963c24.401-13.762 53.574-21.87 84.64-21.87s60.239 8.108 85.517 22.323l162.643-94.213c23.712-14.018 39.365-39.453 39.365-68.545 0-0.315-0.002-0.629-0.005-0.943v-44.432zM352 448v96c0 79.529 64.471 144 144 144s144-64.471 144-144v-96c0-79.529-64.471-144-144-144s-144 64.471-144 144zM832 114.24v16.32c-0.167 40.832-22.283 76.46-55.154 95.715l-160.526 86.685c34.408 31.107 55.936 75.906 55.936 125.733 0 3.274-0.093 6.526-0.276 9.754l0.020 95.553c0 97.202-78.798 176-176 176s-176-78.798-176-176v-96c3.169-54.536 29.72-102.295 69.689-133.783l-146.169-86.697c-31.328-19.241-51.907-53.318-51.907-92.201 0-1.336 0.024-2.667 0.072-3.991l-0.006-16.129c-88.074 79.515-143.186 194.096-143.186 321.549 0 3.956 0.053 7.9 0.159 11.831-0.012 255.68 207.728 463.42 463.988 463.42s464-207.74 464-464c0.086-3.213 0.135-6.995 0.135-10.788 0-128.203-55.763-243.382-144.358-322.606z" />
<glyph unicode="&#xe901;" glyph-name="bs_activities" d="M521.28 717.76c0.004 0 0.008 0 0.013 0 50.722 0 91.84 41.118 91.84 91.84s-41.118 91.84-91.84 91.84c-11.497 0-22.5-2.113-32.643-5.971l0.631 0.211c-35.237-13.374-59.827-46.855-59.827-86.080 0-50.717 41.111-91.833 91.827-91.84zM500.16 865.6c6.268 2.435 13.523 3.846 21.107 3.846 33.049 0 59.84-26.791 59.84-59.84s-26.791-59.84-59.84-59.84c-25.457 0-47.202 15.897-55.848 38.305-2.578 6.682-3.992 13.944-3.992 21.535 0 25.465 15.906 47.214 38.324 55.855zM230.72 160c0.991-7.972 7.724-14.080 15.884-14.080 0.041 0 0.081 0 0.122 0h1.594l571.84 64c8.1 0.917 14.337 7.73 14.337 16 0 8.89-7.207 16.097-16.097 16.097-0.62 0-1.232-0.035-1.834-0.103l-253.046-28.473 34.24 150.4c0.792 3.023 1.247 6.493 1.247 10.069 0 19.956-14.16 36.604-32.981 40.446l-145.546 29.485c-15.895 3.322-27.663 17.219-27.663 33.865 0 5.12 1.113 9.98 3.111 14.351l36.392 80.424 216.96-56h4.16c0.576-0.073 1.243-0.115 1.92-0.115 8.9 0 16.115 7.215 16.115 16.115 0 8.223-6.159 15.008-14.116 15.992l-211.598 54.408 19.84 43.52c0.655 1.681 1.035 3.626 1.035 5.661 0 8.837-7.163 16-16 16-6.108 0-11.417-3.423-14.113-8.455l-69.802-153.686c-3.775-8.095-5.977-17.573-5.977-27.567 0-32.080 22.695-58.859 52.905-65.158l146.032-29.195c2.575-0.513 4.723-2.033 6.058-4.123 0.529-1.168 0.824-2.488 0.824-3.877s-0.295-2.709-0.826-3.901l-34.536-151.619c-0.477-1.434-0.753-3.085-0.753-4.8s0.275-3.366 0.784-4.911l-288.032-31.889c-7.357-1.539-12.804-7.972-12.804-15.678 0-1.134 0.118-2.24 0.342-3.307zM173.12 68.8c-2.943 4.013-7.641 6.589-12.94 6.589-8.837 0-16-7.163-16-16 0-2.388 0.523-4.654 1.461-6.689 20.286-35.082 57.722-58.377 100.599-58.377 35.752 0 67.721 16.196 88.97 41.652 21.317-25.417 53.083-41.607 88.63-41.607s67.313 16.19 88.325 41.599c21.322-25.409 53.088-41.599 88.635-41.599s67.313 16.19 88.325 41.599c21.554-25.448 53.523-41.644 89.275-41.644 42.877 0 80.313 23.295 100.342 57.919 2.21 3.162 3.358 6.431 3.358 9.968 0 8.837-7.163 16-16 16-6.449 0-12.006-3.815-14.539-9.311-15.106-25.599-42.382-42.477-73.615-42.659-31.802 1.167-59.16 19.011-73.718 44.996-3.265 4.865-8.292 7.727-13.989 7.727s-10.724-2.862-13.723-7.227c-14.353-27.258-42.426-45.489-74.757-45.489s-60.403 18.231-74.499 44.973c-3.060 5.183-8.157 8.295-13.981 8.295s-10.921-3.112-13.72-7.763c-15.007-26.548-42.634-44.329-74.482-45.19-32.085 0.86-59.711 18.642-74.451 44.68-3.264 4.859-8.292 7.721-13.988 7.721s-10.724-2.862-13.723-7.227c-15.004-26.532-42.63-44.313-74.478-45.174-0.504-0.009-0.96-0.012-1.416-0.012-31.319 0-58.718 16.789-73.686 41.858z" />
<glyph unicode="&#xe902;" glyph-name="bs_add-boat" d="M32 224h490.56c3.562-106.071 90.405-190.704 197.016-190.704 108.866 0 197.12 88.254 197.12 197.12 0 39.979-11.901 77.177-32.355 108.247 52.384 63.359 88.378 142.383 101.258 228.951l2.881 24.706-238.4-50.56-157.44 153.28-362.56-263.040-198.080-41.92v-166.080zM719.68 65.92c-91.193 0-165.12 73.927-165.12 165.12s73.927 165.12 165.12 165.12c91.193 0 165.12-73.927 165.12-165.12-0.182-91.12-74-164.938-165.103-165.12zM589.76 653.44l123.2-119.040-405.76-86.4zM64 364.16l886.4 187.84c-14.786-72.023-44.996-135.324-87.125-188.795-35.348 39.98-86.801 64.333-143.943 64.333-99.783 0-182.222-74.262-195.062-170.532l-460.27-1.006v108.16zM800 256h-64v64c0 8.837-7.163 16-16 16s-16-7.163-16-16v-64h-64c-8.837 0-16-7.163-16-16s7.163-16 16-16h64v-64c0-8.837 7.163-16 16-16s16 7.163 16 16v64h64c8.837 0 16 7.163 16 16s-7.163 16-16 16z" />
<glyph unicode="&#xe903;" glyph-name="bs_add-boat-managers" d="M693.12 366.4l-79.36-60.8c-32.729 65.913-99.582 110.418-176.829 110.418-0.946 0-1.891-0.007-2.834-0.020l-3.057 0.002c57.28 32 80.96 102.4 80.96 174.080v91.84c0 109.76-74.56 214.080-184.32 214.080v0c-55.832-2.941-105.369-27.677-140.678-65.786-36.585-38.676-59.002-90.833-59.002-148.227 0-0.023 0-0.047 0-0.070v-91.516c-0.005-0.527-0.008-1.15-0.008-1.773 0-72.524 37.994-136.174 95.164-172.132l0.844-0.495c-0.794 0.012-1.73 0.019-2.669 0.019-104.625 0-189.44-84.815-189.44-189.44 0-2.257 0.039-4.505 0.118-6.743l-0.009-41.915h409.28l-27.2-13.12-158.080-32.64v-117.12l473.92-15.040c227.2 0 270.080 258.88 270.72 261.12l3.52 26.88-192-39.68zM690.24 324.48l85.12-82.56-279.68-60.8zM160 681.92c0 0.129-0.001 0.281-0.001 0.434 0 48.474 18.745 92.571 49.381 125.436 29.566 32.218 71.061 53.281 117.479 56.185l0.501 0.025c92.48 0 152.64-89.92 152.64-182.080v-32c-31.417 15.851-55.7 41.999-68.774 73.926l-11.226 32.954-12.8-30.080c-23.922-51.588-75.269-86.725-134.822-86.725-0.414 0-0.828 0.002-1.241 0.005h0.063c-0.237-0.001-0.516-0.002-0.796-0.002-33.715 0-65.027 10.284-90.972 27.886l0.568 14.036zM160 590.4v38.4c25.476-13.135 55.599-20.835 87.52-20.835 1.294 0 2.585 0.013 3.873 0.038l-0.193-0.003c0.327-0.002 0.713-0.004 1.1-0.004 60.53 0 113.668 31.65 143.767 79.304 20.866-30.585 49.238-55.153 82.721-70.483l1.212-26.737c-0.091-88.297-71.691-159.84-160-159.84-88.366 0-160 71.634-160 160 0 0.056 0 0.113 0 0.169zM381.76 391.68l-33.6-71.68h-41.28l-33.6 72.96c13.353-3.21 28.683-5.050 44.444-5.050 3.502 0 6.983 0.091 10.44 0.27 3.788-0.348 8.767-0.534 13.79-0.534 14.091 0 27.839 1.469 41.099 4.262zM64 224c-0.017 0.865-0.027 1.885-0.027 2.907 0 86.775 70.345 157.12 157.12 157.12 1.022 0 2.042-0.010 3.059-0.029l18.407 0.002 36.48-64-52.8-96h-162.24zM261.76 224l44.8 64h41.28l44.8-64h-130.56zM428.48 224l-52.8 96 36.48 64h21.76c2.738 0.167 5.939 0.263 9.162 0.263 63.088 0 117.649-36.514 143.701-89.561l-106.782-70.702h-51.2zM729.6 32v0l-441.6 15.040v59.52l668.48 136.32c-15.68-58.24-63.36-210.88-226.56-210.88zM736 640v-64h-64v-32h64v-32h32v32h32v32h-32v64h-32zM590.080 569.6c0.18-84.871 69.023-153.603 153.92-153.603 0.338 0 0.675 0.001 1.012 0.003h-0.052c0.476-0.005 1.038-0.008 1.6-0.008 84.477 0 152.96 68.483 152.96 152.96 0 0.115 0 0.231 0 0.346-3.781 82.509-71.608 147.986-154.727 147.986-83.007 0-150.762-65.299-154.699-147.331zM867.52 569.6c0.008-0.521 0.013-1.135 0.013-1.75 0-33.244-13.591-63.314-35.52-84.957-21.848-21.585-51.873-34.91-85.010-34.91-0.718 0-1.435 0.006-2.15 0.019l0.108-0.001c-67.335 0-121.92 54.585-121.92 121.92s54.585 121.92 121.92 121.92c67.693-0.543 122.381-55.455 122.56-123.183z" />
<glyph unicode="&#xe904;" glyph-name="bs_add-fav" d="M64 896v-896h704v241.28c96 81.92 202.88 214.4 202.88 318.080 0.089 2.055 0.14 4.465 0.14 6.887 0 91.192-71.837 165.606-162.008 169.739l-4.212 0.014c-0.996 0.034-2.166 0.053-3.341 0.053-11.974 0-23.479-2.011-34.194-5.714l0.735 165.661h-704zM736 32h-640v832h640v-143.68c-25.831-8.652-47.157-25.011-61.815-46.313-30.834 31.071-73.554 50.604-120.837 50.604-37.9 0-72.868-12.55-100.976-33.72-19.871-10.567-35.163-28.564-42.274-50.266l-218.097-0.624v-32h200.96c-7.36 0-11.52-39.68-12.16-60.48 0-32 10.56-35.52 27.2-99.52h-216v-32h233.6c77.76-128 230.72-251.2 239.36-258.56l10.24-4.48 9.6 10.24c16.023 16.809 32.723 32.495 50.253 47.225l0.947-178.425zM804.16 704v0h3.2c73.525-3.114 131.952-63.476 131.952-137.484 0-1.954-0.041-3.898-0.121-5.833 0.009-127.723-214.391-319.723-264.311-361.003-49.28 43.2-262.4 235.84-262.4 363.52 1.404 74.558 62.175 134.46 136.937 134.46 46.318 0 87.266-22.992 112.053-58.186l14.050-20.274 12.8 21.12c24.674 38.518 67.252 63.68 115.707 63.68 0.047 0 0.093 0 0.14 0zM192 288h192v-32h-192v32z" />
<glyph unicode="&#xe905;" glyph-name="bs_admiral" d="M320 676.16l106.24-106.24-25.28-144 130.88 67.52 128-72-19.84 148.16 105.28 102.4-147.84 21.12-64 136.32-64-136zM531.84 753.92l44.16-90.24 99.84-14.4-71.040-67.84 14.4-101.44-85.44 48.32-88.64-45.76 16.96 96-71.040 73.28 99.84 11.52zM192 748.16v-812.16h640v812.16l-320 186.24zM800-32h-576v96h576v-96zM800 96h-576v160h576v-160zM800 288h-576v441.6l288 166.4 288-166.4v-441.6z" />
<glyph unicode="&#xe906;" glyph-name="bs_angle" d="M917.76 543.36v0l-31.040 29.76-0.32 1.92-1.6-0.32-0.64 0.96-1.28-1.28-46.72-10.88 7.040-31.040 10.88 2.56-2.88-18.88 31.68-5.12 2.88 18.88 13.44-13.12 36.16-34.24 16-15.36-11.84-18.56 26.88-17.6 26.24 41.28-21.76 20.8-53.12 50.24zM863.601 331.213l69.489 107.496 26.874-17.372-69.489-107.496-26.874 17.372zM830.32 384.312l20.068 126.417 31.604-5.017-20.068-126.417-31.604 5.017zM331.011 445.458l124.654 29.077 7.269-31.163-124.654-29.077-7.269 31.163zM820.48 560l-34.24 32-22.080-23.36 18.88-17.6-78.4-18.24 7.36-31.040 124.48 29.12-7.040 31.040-8.96-1.92zM517.767 489.324l124.654 29.077 7.269-31.163-124.654-29.077-7.269 31.163zM250.88 392.96l-1.6-0.32v-0.32l1.6 0.64zM111.36 392.64l-23.36-37.76 26.56-15.040 16.96 25.28 28.48 5.76 89.28 21.76 0.32 0.96 26.56 6.4-2.88 11.84 15.040 11.52-19.2 25.6-27.52-25.6-81.6-20.8-48.64-9.92zM87.36 241.6l0.32 32h-9.6l0.32 0.32 34.24 65.6-28.16 15.040-30.4-57.6-2.24-4.8-4.8-9.28-21.44-40.64 61.76-0.64zM835.52 234.24l27.52 40-16.96 11.2 5.44 30.72-31.36 4.48-4.8-32.64h-0.32l2.56-23.68-17.6 0.96-123.84 1.6-2.24-32 158.080-1.92v0.64l3.52 0.64zM837.76 224l-0.64 2.24-2.56 6.4-2.56 0.32v-8.96h5.76zM93.778 241.474l0.374 31.998 127.991-1.497-0.374-31.998-127.991 1.497zM477.784 236.915l0.374 31.998 127.991-1.497-0.374-31.998-127.991 1.497zM285.783 239.515l0.374 31.998 127.991-1.497-0.374-31.998-127.991 1.497zM594.24 609.92l-0.64 32-67.84-1.6-56.64-42.24 19.2-25.6 48.32 36.16 57.6 1.28zM757.76 574.72l22.080 23.36-49.92 47.040-72.32-1.6 0.64-32 59.2 1.28 40.32-38.080zM315.297 483.478l102.627 76.496 19.124-25.657-102.627-76.496-19.124 25.657z" />
<glyph unicode="&#xe907;" glyph-name="bs_arrow" d="M128-34.56c2.9-2.923 6.919-4.733 11.36-4.733s8.46 1.81 11.359 4.732l469.761 469.761c2.923 2.9 4.733 6.919 4.733 11.36s-1.81 8.46-4.732 11.359l-472.961 472.641c-2.907 2.907-6.924 4.705-11.36 4.705-8.873 0-16.065-7.193-16.065-16.065 0-4.436 1.798-8.453 4.705-11.36l461.76-459.84-458.56-460.16c-2.828-2.884-4.574-6.838-4.574-11.2s1.746-8.316 4.576-11.203zM417.6-39.36c4.392 0.065 8.346 1.889 11.197 4.797l470.083 469.763c2.923 2.9 4.733 6.919 4.733 11.36s-1.81 8.46-4.732 11.359l-472.641 472.641c-2.907 2.907-6.924 4.705-11.36 4.705-8.873 0-16.065-7.193-16.065-16.065 0-4.436 1.798-8.453 4.705-11.36l460.48-459.84-457.6-460.16c-2.829-2.884-4.575-6.839-4.575-11.202 0-8.758 7.036-15.872 15.763-15.998z" />
<glyph unicode="&#xe908;" glyph-name="bs_assign-captains" d="M818.88 231.68l-121.28 120.32-81.28-59.84c-32.715 62.743-94.826 106.221-167.566 112.269 38.584 34.764 63.266 85.296 63.266 141.594 0 0.976-0.007 1.951-0.022 2.924l0.002 59.053c32 8 29.44 18.24 29.44 32 0.098 0.816 0.155 1.761 0.155 2.719 0 3.534-0.764 6.89-2.136 9.911l64.061 104.169-283.52 149.76-266.88-151.36 59.2-105.92c-2.623-3.064-4.697-6.686-6.015-10.654-0.065-13.026 21.055-22.946 21.055-32.226v-59.52c-0.018-0.972-0.028-2.119-0.028-3.268 0-55.637 24.025-105.662 62.266-140.268-104.943-9.337-187.113-95.723-189.593-201.821l-0.005-41.524h436.16l-23.68-15.040-156.48-34.24v-110.72h480c232.32 0 276.16 252.8 276.8 256l3.84 21.12zM694.4 308.8l87.36-84.8-288-64zM96 743.040l224 128 239.68-128-43.52-71.040c-52.48 24.64-160 26.24-188.48 26.24s-138.88-1.6-192-27.2zM327.68 665.6c105.6 0 168-16.64 183.040-27.2-15.040-10.56-77.44-27.2-183.040-27.2s-167.68 16.96-183.040 28.8c15.36 9.28 77.12 25.6 183.040 25.6zM160 548.8v47.36c47.585-10.58 102.238-16.642 158.308-16.642 0.595 0 1.19 0.001 1.785 0.002 1.010-0.006 2.315-0.009 3.62-0.009 55.333 0 109.305 5.83 161.334 16.909l-5.047-47.62c0-88.366-71.634-160-160-160s-160 71.634-160 160zM32 192v9.28c4.895 99.547 84.907 178.892 184.282 182.709l32.358 0.011c24-32 50.88-17.28 79.040-17.28s53.76-14.72 78.080 17.28h26.88c70.46-1.608 130.511-44.534 157.001-105.428l-109.641-86.572h-448zM736 32h-448v53.12l682.24 151.68c-16.32-58.88-69.44-204.8-234.24-204.8zM780.48 403.84c0.013 0 0.029 0 0.045 0 87.305 0 158.080 70.775 158.080 158.080 0 14.684-2.002 28.9-5.748 42.391l-31.737-9.431c2.706-9.559 4.332-20.558 4.479-31.914 0.001-0.108 0.001-0.136 0.001-0.163 0-69.632-56.448-126.080-126.080-126.080s-126.080 56.448-126.080 126.080c0 69.632 56.448 126.080 126.080 126.080 24.521 0 47.407-7 66.769-19.111l17.711 26.549c-23.651 14.863-52.407 23.68-83.222 23.68-87.305 0-158.080-70.775-158.080-158.080 0-87.2 70.605-157.91 157.765-158.080zM735.040 601.28l-22.72-22.4 68.16-68.16 167.68 167.68-22.72 22.4-144.96-144.96-45.44 45.44z" />
<glyph unicode="&#xe909;" glyph-name="bs_availability" d="M878.72 598.4l-29.44-12.48c19.513-45.502 30.86-98.458 30.86-154.063 0-220.914-179.086-400-400-400s-400 179.086-400 400c0 220.914 179.086 400 400 400 79.1 0 152.838-22.96 214.912-62.579l15.348 28.162c-65.157 41.609-144.603 66.32-229.82 66.32-238.234 0-431.36-193.126-431.36-431.36s193.126-431.36 431.36-431.36c238.234 0 431.36 193.126 431.36 431.36 0 59.911-12.214 116.969-34.287 168.82zM948.8 891.2l-468.8-468.48-148.8 148.8-22.72-22.72 160-160c2.9-2.923 6.919-4.733 11.36-4.733s8.46 1.81 11.359 4.732l480.001 480.001z" />
<glyph unicode="&#xe90a;" glyph-name="bs_back" d="M89.92 207.68l2.88 16.32c0.276 9.678 1.428 18.923 3.381 27.868l-0.181 4.132h-32v-5.12c-2.015-9.511-3.285-20.534-3.517-31.813l-0.003-15.867zM65.92 177.6l8-14.080c17.617-30.908 43.292-55.452 74.194-71.214l15.086-7.506 14.4 28.48-14.4 7.040c-26.077 13.38-47.051 33.531-61.063 58.16l-8.377 13.52zM231.36 104l4.16-32 16 1.92c37.237 4.531 70.185 20.126 96.17 43.349l9.43 8.491 8.32 9.92 4.48 5.76 4.48-5.76 9.6-9.6 24.64 20.16-8.96 13.76c-5.629 6.42-10.809 13.536-15.315 21.099l-14.445 26.581-14.080-26.24c-4.637-8.64-9.624-16.078-15.245-22.979l-7.475-9.341-8.64-7.68c-20.819-18.757-47.361-31.538-76.709-35.44zM424.96 133.44l-16.32-27.52 13.76-8.32c25.557-15.48 56.439-24.641 89.461-24.641 0.161 0 0.323 0 0.484 0.001h27.175l-1.92 32h-16c-2.753-0.188-5.968-0.295-9.207-0.295-27.067 0-52.386 7.485-74 20.497zM667.52 181.76l-14.080 25.92-13.44-25.92c-4.758-8.629-9.846-16.064-15.556-22.964l-8.124-9.996-9.6-8.32-5.76-4.8-12.48-9.92 19.52-25.28 12.48 9.92 7.040 5.76 12.48 9.92 9.92 11.84 4.48 5.76 4.48-5.76 10.24-12.48 24.64 20.16-10.88 14.4c-5.502 6.406-10.58 13.522-14.991 21.075zM704 136l-17.28-26.88 13.44-8.64c26.658-17.265 59.246-27.529 94.231-27.529 0.622 0 1.243 0.003 1.864 0.010l21.985-0.001v32h-20.8c-0.051 0-0.112 0-0.173 0-28.558 0-55.165 8.35-77.514 22.742zM880 132.8l-12.48-9.28 18.88-27.52 13.12 9.28c28.839 20.505 50.977 48.727 63.591 81.663l4.889 13.377-4.16 12.8c-0.276 11.494-1.544 22.514-3.725 33.203l0.205 9.677h-32.32v-5.12c1.917-7.932 3.286-17.246 3.821-26.782l0.019-12.578-2.24-10.88c-9.82-27.727-27.015-50.804-49.236-67.577zM556.8 672l-3.84-16 32-8.32 3.84 16.64c-0.001 0.064-0.002 0.139-0.002 0.214 0 2.826 0.964 5.428 2.582 7.493l80.62-0.027v32h-80.64c-17.617-1.458-31.746-14.713-34.53-31.78zM704 576h-32v-32h115.2v-0.64l3.84 0.64h8.96v1.6l18.88 3.2-22.72 126.080-31.36-5.44 16.64-93.44h-45.44v64h-32v-64zM298.56 672l-3.84-16 32-8.32 3.84 16.64c0 2.896 0.962 5.567 2.583 7.712l82.857-0.032v32h-82.88c-17.617-1.458-31.746-14.713-34.53-31.78zM437.44 631.68h32v-62.4h-32v62.4zM512 832h128v-32h-128v32zM320 832h128v-32h-128v32zM753.6 732.16l31.36 5.76-16.96 94.080h-64v-32h37.44l12.16-67.84zM203.84 576h-107.84v-32h20.8l43.2-114.88 30.080 11.2-39.040 103.68h72.96v4.16l6.4-1.28 14.4 69.76-31.36 6.4-9.6-47.040zM226.259 685.723l25.716 125.39 31.348-6.429-25.716-125.39-31.348 6.429zM825.6 354.88l-31.040 8.32-11.52-43.2h-47.040v-32h71.36l18.24 66.88zM544 320h128v-32h-128v32zM212.48 380.48l-30.080-11.2 30.4-81.28h75.2v32h-52.8l-22.72 60.48zM352 320h128v-32h-128v32zM288 576v-32h128v32h-96v64h-32v-64zM813.078 428.253l33.28 124.16 31.040-8.32-33.28-124.16-31.040 8.32zM480 544h128v32h-32v64h-32v-64h-64v-32z" />
<glyph unicode="&#xe90b;" glyph-name="bs_basic-insurance" d="M56.32 765.76c-2.56-50.24-11.52-500.16 448-784 2.46-1.538 5.432-2.48 8.618-2.56 3.123 0.073 5.989 1.018 8.403 2.597 459.139 284.122 449.859 733.722 447.939 783.962-0.225 4.807-2.539 9.031-6.047 11.815-2.735 2.181-6.2 3.484-9.968 3.484-1.013 0-2.003-0.094-2.964-0.274-25.872-4.858-55.756-7.651-86.29-7.665-132.589 0.338-252.711 53.388-340.583 139.289-2.902 2.62-6.892 4.277-11.268 4.277s-8.366-1.658-11.375-4.38c-87.84-85.872-208.091-138.938-340.737-139.187-29.811 0.036-58.924 2.712-87.197 7.806 2.153-0.295 1.191-0.208 0.209-0.208-3.793 0-7.285-1.294-10.056-3.465-3.679-2.608-6.2-6.715-6.679-11.425zM160 741.12c136.003 0.397 259.7 52.752 352.358 138.246 91.943-85.495 215.641-137.849 351.562-138.246 25.299 0.053 50.037 1.912 74.229 5.455-2.789-96.335-25.829-480.335-427.109-732.495-400.32 253.12-424 636.16-423.36 732.16 21.714-3.239 46.791-5.099 72.298-5.12zM744.64 448c0 128.484-104.156 232.64-232.64 232.64s-232.64-104.156-232.64-232.64c0-128.484 104.156-232.64 232.64-232.64 128.41 0.182 232.458 104.23 232.64 232.622zM311.36 448c0 110.81 89.83 200.64 200.64 200.64s200.64-89.83 200.64-200.64c0-110.81-89.83-200.64-200.64-200.64-110.737 0.182-200.458 89.903-200.64 200.623zM642.24 529.92c-2.952 3.43-7.299 5.589-12.15 5.589-4.060 0-7.767-1.512-10.588-4.004l-154.543-132.785-59.2 67.52c-2.916 3.033-7.008 4.916-11.539 4.916-8.837 0-16-7.163-16-16 0-3.814 1.335-7.317 3.563-10.066l69.737-79.33c2.884-2.828 6.838-4.574 11.2-4.574s8.316 1.746 11.203 4.576l166.077 141.757c3.557 2.956 5.805 7.381 5.805 12.331 0 3.829-1.345 7.344-3.588 10.098z" />
<glyph unicode="&#xe90c;" glyph-name="bs_bath" d="M418.24 736c34.109 0 61.76 27.651 61.76 61.76v4.48c0 34.109-27.651 61.76-61.76 61.76h-100.16c-5.166 16.739-19.234 29.203-36.539 31.966l-22.661 0.034c-17.382-2.169-31.231-15.044-34.832-31.733l-66.288-0.267c-34.109 0-61.76-27.651-61.76-61.76v-4.48c0.035-24.172 13.951-45.085 34.203-55.198l29.797-358.562h92.48l67.52-142.72v-232h352l25.6 110.4c111.835 28.643 193.288 128.242 193.92 246.969v7.751c0.129 2.342 0.203 5.082 0.203 7.84s-0.074 5.498-0.219 8.22c21.5 9.429 36.22 30.612 36.496 55.264v4.516c0 34.109-27.651 61.76-61.76 61.76h-356.48c-34.109 0-61.76-27.651-61.76-61.76v-4.48c-0.354-1.645-0.556-3.535-0.556-5.472 0-10.557 6.014-19.709 14.803-24.217l-76.647-0.071 22.080 320h10.56zM188.16 416l-24.96 320h212.48l-21.44-320h-166.080zM480 450.24c0 16.436 13.324 29.76 29.76 29.76h356.48c16.436 0 29.76-13.324 29.76-29.76v-4.48c0-16.436-13.324-29.76-29.76-29.76h-356.48c-16.436 0-29.76 13.324-29.76 29.76v4.48zM861.12 384v-13.44c-0.296-107.518-75.652-197.351-176.414-219.877l-12.706-3.483-24.64-106.24h-295.36v203.84l-59.84 139.2h568.96zM157.76 768c-16.436 0-29.76 13.324-29.76 29.76v4.48c0 16.436 13.324 29.76 29.76 29.76h260.48c16.436 0 29.76-13.324 29.76-29.76v-4.48c0-16.436-13.324-29.76-29.76-29.76h-260.48z" />
<glyph unicode="&#xe90d;" glyph-name="bs_boat" d="M1002.24 580.48l-256-55.68-156.8 156.16-360.64-269.44-196.8-43.52v-144h608c300.8 0 357.76 332.16 358.4 335.36zM586.24 640l123.2-122.24-408-89.92zM640 256h-576v86.080l900.8 199.040c-18.56-72.64-96.32-285.12-324.8-285.12z" />
<glyph unicode="&#xe90e;" glyph-name="bs_boat-details" d="M480 363.2c-14.315 0-25.92-11.605-25.92-25.92s11.605-25.92 25.92-25.92c14.315 0 25.92 11.605 25.92 25.92s-11.605 25.92-25.92 25.92zM473.92 337.28c0 3.446 2.794 6.24 6.24 6.24s6.24-2.794 6.24-6.24c-0.64-6.72-13.12-6.72-13.12 0zM986.56 432h-27.84l37.12 88.32c1.173 2.609 1.857 5.656 1.857 8.862 0 10.47-7.288 19.239-17.068 21.509-70.898-0.713-139.201-9.654-204.624-25.886l-173.765 134.075c-3.774 2.896-8.563 4.641-13.76 4.641s-9.986-1.745-13.814-4.681l-342.986-263c-77.079-17.899-141.236-37.354-203.651-60.407 3.971 0.567 3.971-7.753 3.971-17.353v-64c0-12.8-4.48-30.080 7.68-30.080h744.32c14.156 1.356 27.175 4.527 39.391 9.301 23.583 7.857 44.401 21.76 60.653 39.848l116.276 120.451c3.68 4.023 5.934 9.404 5.934 15.311 0 2.535-0.415 4.972-1.181 7.249-2.378 8.363-9.576 14.702-18.404 15.828zM849.6 508.48c30.545 5.896 68.364 10.89 106.752 13.854l-31.872-84.254c-34.88 3.2-69.12 5.76-102.4 7.36zM812.16 502.080l-23.68-54.080c-23.775 0.878-51.702 1.378-79.746 1.378-63.837 0-127.068-2.592-189.595-7.676 127.581 28.058 221.981 47.578 293.021 60.378zM588.16 630.080l151.36-109.44c-108.48-21.76-250.88-54.72-425.6-102.080zM861.12 297.6c-12.543-14.729-28.454-26.218-46.565-33.325-9.359-3.9-19.301-6.599-29.678-7.898l-720.877-0.057v54.72c196.135 67.494 422.137 106.464 657.24 106.464 87.758 0 174.247-5.43 259.15-15.972zM598.080 362.56c-14.138 0-25.6-11.462-25.6-25.6s11.462-25.6 25.6-25.6c14.138 0 25.6 11.462 25.6 25.6s-11.462 25.6-25.6 25.6zM591.68 336.96c-0.102 0.427-0.16 0.918-0.16 1.422 0 3.535 2.865 6.4 6.4 6.4s6.4-2.865 6.4-6.4c0-0.504-0.058-0.995-0.169-1.465 0.009-7.317-12.471-6.997-12.471-0.277z" />
<glyph unicode="&#xe90f;" glyph-name="bs_boat-managers" d="M32 21.44v-53.44h960v53.44c0.081 2.628 0.127 5.719 0.127 8.82 0 162.632-127.038 295.592-287.293 305.061 54.945 48.897 91.142 118.921 95.138 197.444l0.027 128.675c0 150.080-137.92 272-288 272s-288-122.24-288-272v-128c4.023-79.199 40.221-149.223 95.676-197.802-160.766-9.786-287.804-142.746-287.804-305.378 0-3.102 0.046-6.192 0.138-9.272zM409.92 0l70.080 128h64l69.44-128h-203.52zM480 160l-55.36 113.6c25.384-8.736 54.635-13.78 85.063-13.78 1.145 0 2.289 0.007 3.43 0.021 1.349-0.033 3.144-0.050 4.943-0.050 29.74 0 58.355 4.818 85.106 13.717l-59.183-113.508h-64zM960 21.44v-21.44h-310.080l-77.44 152 73.92 138.56c0.342 0.020 0.743 0.032 1.146 0.032 3.69 0 7.155-0.961 10.159-2.646l24.855 0.054c155.84 0 277.44-110.72 277.44-266.56zM256 661.44c0 132.48 123.52 240 256 240s256-107.52 256-240v-53.44c-57.779 17.010-103.791 57.787-127.492 110.73l-19.068 33.27-16.64-32c-39.069-76.517-117.313-128-207.581-128-0.035 0-0.070 0-0.104 0-47.035 0-77.115 16-141.115 46.080v23.36zM256 533.44v64c64-24.96 94.080-38.72 141.44-38.72 92.812 0.4 174.603 47.222 223.399 118.432 34.597-50.036 85.633-87.33 145.423-103.004l1.738-40.707c0-132.48-123.52-240-256-240s-256 107.52-256 240zM341.44 288h24.96c1.677 0.512 3.604 0.807 5.6 0.807s3.923-0.295 5.74-0.843l73.78-141.084-77.44-146.88h-310.080v21.44c0 155.84 121.6 266.56 277.44 266.56z" />
<glyph unicode="&#xe910;" glyph-name="bs_boat-profile" d="M144 256h388.16c201.6 0 240.64 224 241.28 225.92 0.136 0.784 0.214 1.687 0.214 2.608 0 8.837-7.163 16-16 16-1.21 0-2.388-0.134-3.521-0.389l-149.013-31.98-96 94.4c-2.778 2.387-6.419 3.841-10.4 3.841s-7.622-1.454-10.421-3.859l-232.299-167.342c-1.236-1.006-2.295-2.166-3.164-3.463l-112.996-24.697c-6.744-1.857-11.649-7.85-11.84-15.019v-80.021c0-8.837 7.163-16 16-16zM496 529.92l70.72-70.080-238.72-51.84zM160 338.56l576 124.8c-14.72-52.8-64-175.36-203.84-175.36h-372.16v50.56zM976 864h-800c-8.837 0-16-7.163-16-16v-112h-112c-8.837 0-16-7.163-16-16v-672c0-8.837 7.163-16 16-16h800c8.837 0 16 7.163 16 16v112h112c8.837 0 16 7.163 16 16v672c0 8.837-7.163 16-16 16zM832 64h-768v640h768v-640zM960 192h-96v528c0 8.837-7.163 16-16 16h-656v96h768v-640z" />
<glyph unicode="&#xe911;" glyph-name="bs_cabin-38" d="M256 32h-32v32h-32v-64h64v32zM288 32h128v-32h-128v32zM736 0v64h96v64h-32v-32h-64v160h-32v-224h-224v-32h256zM197.44 117.12h32v-41.28h-32v41.28zM280.64 784c20.256 23.471 45.106 42.379 73.221 55.442l16.059 7.278-13.12 29.12-14.4-6.72c-34.133-15.549-62.938-37.283-86.139-64.013l-10.821-12.467 24.96-20.8zM240 717.12l-30.4 8.32-6.72-15.36c-6.191-18.939-10.215-40.82-11.183-63.492l-0.017-70.588h32.32v69.76c0.997 20.333 4.668 39.457 10.677 57.514zM192 512h32v-128h-32v128zM192 320h32v-128h-32v128zM680.64 710.4l29.76 11.84-6.4 13.76c-14.325 34.575-34.941 63.917-60.651 87.863l-11.989 11.017-21.76-23.36 11.84-10.88c22.478-21.025 40.387-46.634 52.274-75.366zM704 448h32v-128h-32v128zM704 640h32v-128h-32v128zM474.24 471.36h16l-1.92 32h-16c-2.191-0.144-4.751-0.226-7.329-0.226-28.633 0-54.904 10.109-75.44 26.952l-12.271 10.074-20.48-24.64 12.48-10.24c25.723-21.311 59.062-34.241 95.422-34.241 0.203 0 0.406 0 0.609 0.001h9.569zM539.52 528.64l23.36-21.76 10.88 11.52c25.16 26.674 40.628 62.73 40.64 102.398-0.486 13.982-2.791 27.238-6.687 39.795l-3.873 14.288-32-8.32 4.16-15.36c2.439-9.025 3.84-19.386 3.84-30.075 0-0.114 0-0.229 0-0.343 0-0.002 0-0.025 0-0.048 0-31.22-12.182-59.595-32.053-80.63zM435.52 768l-15.68-3.2 6.080-32 15.68 3.2c6.811 1.38 14.639 2.169 22.652 2.169 23.247 0 44.941-6.646 63.288-18.141l12.941-8.348 16.96 27.2-13.44 9.28c-22.65 14.188-50.173 22.603-79.661 22.603-10.195 0-20.154-1.006-29.785-2.923zM377.92 704l-25.92 17.28-9.28-13.12c-17.602-24.173-28.161-54.459-28.161-87.21 0-0.165 0-0.33 0.001-0.495-0.198-2.893-0.311-6.301-0.311-9.734s0.113-6.842 0.335-10.219l1.896-15.541 32 4.16-1.92 16c-0.629 4.585-0.988 9.883-0.988 15.265 0 25.853 8.286 49.771 22.347 69.242zM592.64 288h47.36v32h-128v-32h80.64zM800 512h32v-128h-32v128zM582.080 891.2h-16v-16.64h-3.84v16.64h-16c-5.171 0.401-11.199 0.63-17.28 0.63s-12.108-0.229-18.074-0.678c-9.314 2.291-21.365 3.998-33.662 4.809l-61.224 0.039v-32h60.48c7.040 0 13.76-3.52 20.8-4.16v-4.8h13.76c11.547-2.005 21.559-4.559 31.26-7.794l13.86-2.126 5.44 18.88h9.28v-4.8h42.24l1.6 32h-16zM576 862.080v0zM832 661.76c-1.056 12.003-2.866 22.914-5.432 33.53l-3.528 14.15-32-4.8 4.8-15.68c1.965-7.722 3.548-16.99 4.425-26.462l0.055-86.498h32v85.76zM756.48 773.76l9.6-12.8 25.6 19.2-9.6 12.8c-21.846 28.619-49.19 51.873-80.592 68.48l-15.408 8-14.080-28.16 14.080-7.36c28.136-15.097 51.631-35.321 70.014-59.627zM800 288h32v-128h-32v128z" />
<glyph unicode="&#xe912;" glyph-name="bs_cabin-54" d="M555.52 928h-43.52v-3.52c-19.028 4.070-40.89 6.401-63.296 6.401-0.248 0-0.495 0-0.742-0.001-159.962 0-287.962-119.36-287.962-266.24v-696.64h576v96h105.6v630.080c0 131.2-125.76 233.92-286.080 233.92zM192 0v664.64c0 128 117.76 234.24 256 234.24s256-103.36 256-230.080v-668.8h-512zM809.6 96h-71.68v572.8c-2.214 97.291-57.901 181.078-138.736 223.322 120.176-14.682 210.416-95.322 210.416-198.362v-597.76zM636.48 325.44c-6.034-0.143-11.57-2.162-16.077-5.494l-76.403 0.054v-32h64c3.57-12.066 14.524-20.732 27.512-20.8 0.151-0.003 0.319-0.004 0.488-0.004 16.085 0 29.124 13.039 29.124 29.124 0 15.916-12.767 28.85-28.619 29.12zM613.44 576v0c25.599 0.979 46.169 21.216 47.674 46.584 0.006 0.157 0.006 0.181 0.006 0.206 0 24.902-19.483 45.254-44.037 46.644-16.153 66.095-68.314 116.759-134.036 130.37l11.993 0.195c0 23.682-19.198 42.88-42.88 42.88s-42.88-19.198-42.88-42.88h6.72c-65.97-13.631-117.611-63.134-134.133-126.791-21.644-1.895-38.714-19.389-38.714-40.87 0-0.682 0.017-1.36 0.051-2.034-0.026-0.401-0.039-0.982-0.039-1.567 0-21.139 16.53-38.417 37.369-39.614 16.061-65.352 67.327-115.551 132.074-129.714 6.782-15.508 21.229-26.221 38.178-26.221 0.934 0 1.86 0.033 2.777 0.096 0.619-0.057 1.486-0.086 2.36-0.086 17.713 0 32.672 11.797 37.446 27.963 57.124 16.152 101.634 58.867 119.718 113.606zM629.44 627.52c-0.562-4.025-2.975-7.389-6.336-9.247l-0.064 20.127c3.84-2.095 6.401-6.103 6.401-10.71 0-0.060 0-0.12-0.001-0.179zM274.56 629.76c-0.040 0.24-0.063 0.518-0.063 0.8s0.023 0.56 0.067 0.83-0.004-0.35-0.004-1.63zM452.16 814.080c4.878-2.126 8.524-6.296 9.892-11.399l-14.052 0.519h-5.44c1.412 4.952 4.927 8.887 9.491 10.839zM448 488c-78.292 0-141.76 63.468-141.76 141.76s63.468 141.76 141.76 141.76c78.292 0 141.76-63.468 141.76-141.76 0-0.112 0-0.225 0-0.337-0.182-78.137-63.58-141.423-141.76-141.423 0 0 0 0 0 0z" />
<glyph unicode="&#xe913;" glyph-name="bs_calendar" d="M976 864h-176v64h-32v-64h-256v64h-32v-64h-224v64h-32v-64h-176c-8.837 0-16-7.163-16-16v-224c0-8.837 7.163-16 16-16h-16v-624c0-8.837 7.163-16 16-16h928c8.837 0 16 7.163 16 16v624h-16c8.837 0 16 7.163 16 16v224c0 8.837-7.163 16-16 16zM960 0h-896v608h896v-608zM960 640h-896v192h160v-64h32v64h224v-64h32v64h256v-64h32v64h160v-192zM240 128h352c8.837 0 16 7.163 16 16v144h176c8.837 0 16 7.163 16 16v192c0 8.837-7.163 16-16 16h-544c-8.837 0-16-7.163-16-16v-352c0-8.837 7.163-16 16-16zM608 480h160v-160h-160v160zM448 480h128v-160h-128v160zM448 288h128v-128h-128v128zM256 480h160v-160h-160v160zM256 288h160v-128h-160v128z" />
<glyph unicode="&#xe914;" glyph-name="bs_cancelled" d="M512 933.44c-268.101 0-485.44-217.339-485.44-485.44s217.339-485.44 485.44-485.44c268.101 0 485.44 217.339 485.44 485.44-0.182 268.027-217.412 485.257-485.422 485.44zM512-5.12c-250.428 0-453.44 203.012-453.44 453.44s203.012 453.44 453.44 453.44c250.428 0 453.44-203.012 453.44-453.44 0-0.112 0-0.225 0-0.337-0.182-250.337-203.085-453.241-453.422-453.423zM671.36 630.080l-159.36-159.36-159.36 159.36-22.72-22.72 159.36-159.36-159.36-159.36 22.72-22.72 159.36 159.36 159.36-159.36 22.72 22.72-159.36 159.36 159.36 159.36-22.72 22.72z" />
<glyph unicode="&#xe915;" glyph-name="bs_cancelled-trips" d="M512 941.76c-272.696 0-493.76-221.064-493.76-493.76s221.064-493.76 493.76-493.76c272.696 0 493.76 221.064 493.76 493.76-0.364 272.55-221.21 493.396-493.725 493.76zM512-14.080c-255.023 0-461.76 206.737-461.76 461.76s206.737 461.76 461.76 461.76c254.911 0 461.578-206.555 461.76-461.423-0.364-254.894-206.883-461.413-461.725-461.777zM696.96 632.96c-2.9 2.923-6.919 4.733-11.36 4.733s-8.46-1.81-11.359-4.732l-162.241-162.241-162.56 162.56c-2.907 2.907-6.924 4.705-11.36 4.705-8.873 0-16.065-7.193-16.065-16.065 0-4.436 1.798-8.453 4.705-11.36l162.56-162.56-162.56-162.56c-2.907-2.907-4.705-6.924-4.705-11.36 0-8.873 7.193-16.065 16.065-16.065 4.436 0 8.453 1.798 11.36 4.705l162.56 162.56 162.56-162.56c2.907-2.907 6.924-4.705 11.36-4.705 8.873 0 16.065 7.193 16.065 16.065 0 4.436-1.798 8.453-4.705 11.36l-162.56 162.56 162.56 162.56c2.734 2.865 4.416 6.755 4.416 11.037 0 4.443-1.811 8.463-4.735 11.362z" />
<glyph unicode="&#xe916;" glyph-name="bs_captain-request" d="M571.2 64h164.8v32c0.006 0.595 0.009 1.298 0.009 2.001 0 113.797-88.658 206.888-200.669 213.967 43.675 37.366 71.852 92.609 72.658 154.454l0.001 64.138c32 8.32 32 18.88 32 32 0.015 0.334 0.024 0.726 0.024 1.12 0 6.726-2.562 12.853-6.763 17.46l73.938 104.62-302.72 160-282.56-160 64-109.44c-4.941-3.711-9.011-8.291-12.045-13.544 5.304-12.456 11.401-22.969 18.477-32.726l-0.352-63.491c0.451-61.44 28.058-116.344 71.399-153.366-111.753-8.816-199.407-101.832-199.407-215.321 0-0.659 0.003-1.317 0.009-1.974l-0.001-31.899h507.2zM164.8 673.92l239.36 135.68 256-135.36-52.16-76.16c-59.84 24.96-177.6 25.92-195.2 25.92s-141.76 0-200-28.16zM411.2 592c115.84 0 182.080-18.56 196.16-29.76-14.080-11.2-80.64-29.76-196.16-29.76s-182.080 18.56-196.16 29.76c14.080 11.2 80.64 29.76 196.16 29.76zM224 466.56v51.84c51.711-11.605 111.1-18.255 172.043-18.255 1.729 0 3.457 0.005 5.184 0.016 0.79-0.006 2.039-0.009 3.289-0.009 60.732 0 119.938 6.53 176.956 18.925l-5.472-52.518c0-97.202-78.798-176-176-176s-176 78.798-176 176zM96 96c5.336 105.714 91.216 189.699 197.219 191.996l26.781 0.004v-5.76c24.886-9.944 53.731-15.71 83.922-15.71 1.322 0 2.641 0.011 3.957 0.033 29.561-0.003 60.921-10.563 86.521 21.437h36.16c101.76 0 173.44-89.28 173.44-192v0h-608zM864 544h-32v-64h-64v-32h64v-64h32v64h64v32h-64v64zM848 288c-95.625 0.91-172.793 78.639-172.793 174.393 0 96.318 78.082 174.4 174.4 174.4 95.753 0 173.483-77.168 174.392-172.706 0.001-0.277 0.002-0.502 0.002-0.727 0-96.849-78.511-175.36-175.36-175.36-0.225 0-0.451 0-0.676 0.001zM848 605.12c-77.952-0.907-140.794-64.31-140.794-142.391 0-78.645 63.755-142.4 142.4-142.4s142.4 63.755 142.4 142.4c0 0.447-0.002 0.893-0.006 1.339 0.001 0.122 0.002 0.348 0.002 0.573 0 79.176-64.184 143.36-143.36 143.36-0.225 0-0.451-0.001-0.676-0.002z" />
<glyph unicode="&#xe917;" glyph-name="bs_captain-required" d="M928 68.8c0.075 1.686 0.118 3.663 0.118 5.65 0 47.53-24.555 89.324-61.672 113.39l-190.286 120c53.559 44.181 88.407 109.385 91.819 182.802l0.021 80.238c0 9.6 26.88 21.44 26.88 37.12-1.122 4.911-3.236 9.212-6.131 12.867l75.251 136.893-363.84 192-340.16-192.64 81.28-132.16c-5.532-4.498-9.815-10.325-12.386-17.002-0.094-15.638 26.786-27.798 26.786-37.398v-79.68c2.312-73.16 35.844-138.052 87.646-182.106l-188.446-120.934c-35.872-24.154-59.154-64.612-59.154-110.509 0-3.002 0.1-5.98 0.296-8.932l-0.021-132.399h832v132.8zM204.8 745.6l296.32 168 320-168.96-59.52-102.4c-68.16 36.8-240.64 37.44-249.6 37.44s-174.080 0-245.12-35.2zM266.56 608c7.040 14.72 96 40.96 245.44 40.96s234.24-24.96 244.8-40c-10.56-15.040-97.92-40-244.8-40s-238.4 25.28-245.44 39.040zM288 491.2v67.84c67.196-14.328 144.521-22.701 223.742-23.039 79.737 0.341 157.062 8.713 231.718 24.346l-7.46-69.147c0-123.712-100.288-224-224-224s-224 100.288-224 224zM896-32h-768v100.8c-0.072 1.445-0.114 3.138-0.114 4.84 0 36.005 18.467 67.697 46.446 86.121l205.188 128.24c37.477-25.379 83.691-40.516 133.44-40.516s95.963 15.137 134.287 41.056l202.673-128.54c28.013-18.645 46.223-50.090 46.223-85.787 0-1.904-0.052-3.796-0.154-5.674l0.011-100.538zM512 704c43.299 0 78.4 35.101 78.4 78.4s-35.101 78.4-78.4 78.4c-43.299 0-78.4-35.101-78.4-78.4s35.101-78.4 78.4-78.4zM444.16 781.76c-0.102 1.393-0.16 3.018-0.16 4.657 0 37.467 30.373 67.84 67.84 67.84s67.84-30.373 67.84-67.84c0-1.638-0.058-3.263-0.172-4.873s0.012-1.704 0.012-2.984c-6.548-0.986-12.266-3.979-16.642-8.322-2.769-2.795-6.392-4.744-10.446-5.423s-0.112 2.864-0.112 4.464c0.001 0.116 0.001 0.252 0.001 0.389 0 28.043-14.844 52.618-37.103 66.298l-3.218 2.113-2.88-1.6c-22.61-13.87-37.465-38.453-37.465-66.505 0-0.694 0.009-1.387 0.027-2.077s-0.002-2.778-0.002-4.378c-4.28 0.649-8.018 2.605-10.882 5.442-4.361 4.359-10.085 7.356-16.478 8.299s-0.16 3.539-0.16 4.499zM514.88 809.92l-2.88 2.24-2.88-1.92c-10.771-7.494-19.355-17.412-25.081-28.995 2.871 18.113 13.212 33.807 27.74 43.89 14.943-10.108 25.273-25.79 28.326-43.941-5.87 11.634-14.455 21.552-24.976 28.882zM533.44 770.56c-5.46 5.546-13.049 8.982-21.44 8.982s-15.98-3.436-21.436-8.978c4.443 11.925 11.83 21.888 21.294 29.328 9.707-7.359 17.085-17.209 21.43-28.558zM453.44 762.56c5.731-5.471 13.512-8.838 22.080-8.838s16.349 3.367 22.092 8.85l-0.012-0.012c3.595 3.621 8.576 5.862 14.080 5.862s10.485-2.241 14.079-5.861l0.001-0.001c5.731-5.471 13.512-8.838 22.080-8.838s16.349 3.367 22.092 8.85c2.201 2.434 5.002 4.306 8.17 5.387-6.814-30.612-33.826-53.152-66.103-53.152s-59.288 22.54-66.153 52.738c2.948-0.67 5.521-2.42 7.581-4.652z" />
<glyph unicode="&#xe918;" glyph-name="bs_captains" d="M161.6 472.64c-0.012-0.449-0.020-0.976-0.020-1.506 0-18.977 9.126-35.822 23.229-46.386-8.076-27.878-12.809-59.784-12.809-92.795 0-186.628 151.292-337.92 337.92-337.92s337.92 151.292 337.92 337.92c0 33.011-4.734 64.917-13.559 95.076 17.665 8.809 28.967 27.574 29.716 49.022-0.462 8.364-3.653 15.793-8.675 21.595l96.678 174.355-440 232.64-440-232.64 99.2-177.28c-5.353-5.876-8.869-13.51-9.59-21.941zM509.76 24.64c-168.907 0.298-305.717 137.292-305.717 306.24 0 27.643 3.663 54.43 10.529 79.904l2.708-2.143q33.6-12.48 68.16-22.080h2.24c67.106-19.099 144.176-30.080 223.812-30.080 0.067 0 0.133 0 0.2 0 77.841 0.035 153.225 10.544 224.827 30.194l-0.838-1.394q32 8.96 64 20.8h4.8c5.805-22.291 9.137-47.881 9.137-74.249 0-168.294-135.753-304.881-303.729-306.23zM809.6 444.8c-16-6.080-32-11.2-48.64-16.32-8-2.56-15.68-5.76-23.68-8-17.6-5.12-35.52-8.64-53.12-12.48-7.36 0-14.4-3.52-21.44-5.12-16.64-3.2-33.6-4.8-50.56-7.040-8.64 0-16.96-2.56-25.6-3.52-17.6 0-35.52-1.92-53.12-2.24-7.68 0-15.68 0-23.36 0q-37.76 0-75.52 3.84v0c-82.577 7.94-158.505 26.974-229.463 55.716l5.463-1.956c-10.075 3.195-17.452 11.969-18.55 22.606-0.062 0.351-0.091 0.623-0.091 0.902 0 1.447 0.8 2.707 1.982 3.361l0.020 0.010c96.469 23.729 207.219 37.341 321.148 37.341 110.444 0 217.901-12.792 320.969-36.975l-9.476 1.874c0.243-0.413 0.386-0.91 0.386-1.44s-0.143-1.027-0.393-1.454c-0.224-12.341-6.902-23.085-16.796-29.019zM115.84 659.84l396.16 208.64 396.16-208.64-83.52-147.84-20.48 4.16c-16.96 3.52-33.6 7.36-51.2 10.24l-34.56 4.8c-14.4 1.92-28.48 4.16-42.88 5.76-21.44 2.24-43.2 3.84-64 5.12h-15.36c-24.955 1.46-54.14 2.292-83.52 2.292s-58.565-0.832-87.534-2.473l-13.266 0.182c-21.12 0-41.92-3.2-64-5.44-15.36-1.6-30.080-4.16-45.12-6.4l-32-4.8c-18.24-3.2-36.16-7.040-53.76-11.2l-17.6-3.52z" />
<glyph unicode="&#xe919;" glyph-name="bs_certificate" d="M811.2 592.32h-11.2v288c-0.18 8.698-7.273 15.68-15.997 15.68-0.001 0-0.002 0-0.003 0h-736c-8.837 0-16-7.163-16-16v-832c0-8.837 7.163-16 16-16h624v-11.52c0-0.026 0-0.056 0-0.086 0-5.356 2.632-10.097 6.672-13.001 2.673-1.915 5.951-3.043 9.492-3.043 1.77 0 3.475 0.282 5.071 0.803l122.765 40.927 122.88-40.96h5.12c8.837 0 16 7.163 16 16v266.88c0.064 0.528 0.101 1.14 0.101 1.76s-0.037 1.232-0.108 1.833c24.375 31.146 39.079 70.942 39.079 114.172 0 103.034-83.526 186.56-186.56 186.56-0.461 0-0.922-0.002-1.382-0.005zM672 64h-608v800h704v-277.12c-83.038-20.065-143.76-93.733-143.76-181.584 0-47.999 18.127-91.764 47.908-124.823l-0.148-216.473zM928 42.88l-106.88 35.84c-1.528 0.522-3.289 0.824-5.12 0.824s-3.592-0.302-5.235-0.858l-106.765-35.806v209.6c29.859-21.337 67.107-34.116 107.34-34.116 44.34 0 85.055 15.522 117.007 41.428l-0.347-216.912zM811.2 250.56c-42.758 0.006-81.458 17.373-109.436 45.436-1.021 1.763-2.303 3.249-3.813 4.46-25.151 27.415-40.545 64.081-40.545 104.342 0 85.361 69.199 154.56 154.56 154.56s154.56-69.199 154.56-154.56c0-85.361-69.199-154.56-154.56-154.56-0.269 0-0.539 0.001-0.808 0.002zM608 672h-384c-8.837 0-16-7.163-16-16s7.163-16 16-16h384c8.837 0 16 7.163 16 16s-7.163 16-16 16zM480 512h-256c-8.837 0-16-7.163-16-16s7.163-16 16-16h256c8.837 0 16 7.163 16 16s-7.163 16-16 16zM480 320h-256c-8.837 0-16-7.163-16-16s7.163-16 16-16h256c8.837 0 16 7.163 16 16s-7.163 16-16 16z" />
<glyph unicode="&#xe91a;" glyph-name="bs_check" d="M61.44 474.24c-3.43-2.952-5.589-7.299-5.589-12.15 0-4.060 1.512-7.767 4.004-10.588l237.425-275.183c2.948-3.356 7.248-5.462 12.040-5.462 3.816 0 7.32 1.336 10.070 3.566l642.85 522.217c3.649 2.965 5.962 7.452 5.962 12.48 0 8.86-7.182 16.042-16.042 16.042-3.832 0-7.351-1.344-10.11-3.586l-630.37-511.977-227.52 263.040c-2.952 3.43-7.299 5.589-12.15 5.589-4.060 0-7.767-1.512-10.588-4.004z" />
<glyph unicode="&#xe91b;" glyph-name="bs_completed-47" d="M974.72 795.52c-2.9 2.923-6.919 4.733-11.36 4.733s-8.46-1.81-11.359-4.732l-451.201-451.521-212.8 212.8c-2.907 2.907-6.924 4.705-11.36 4.705-8.873 0-16.065-7.193-16.065-16.065 0-4.436 1.798-8.453 4.705-11.36l224-224c2.9-2.923 6.919-4.733 11.36-4.733s8.46 1.81 11.359 4.732l462.721 462.721c2.923 2.9 4.733 6.919 4.733 11.36s-1.81 8.46-4.732 11.359zM486.080 6.72c0 0 0 0 0 0 243.841 0 441.555 197.49 441.919 441.245 0 8.872-7.163 16.035-16 16.035s-16-7.163-16-16c0.002-0.455 0.003-0.993 0.003-1.532 0-226.039-183.241-409.28-409.28-409.28s-409.28 183.241-409.28 409.28c0 226.039 183.241 409.28 409.28 409.28 112.956 0 215.224-45.759 289.28-119.75 2.905-2.905 6.921-4.703 11.357-4.703 8.873 0 16.065 7.193 16.065 16.065 0 4.436-1.798 8.453-4.705 11.36-79.984 80.639-190.831 130.559-313.338 130.559-243.712 0-441.28-197.568-441.28-441.28s197.568-441.28 441.28-441.28c0.246 0 0.491 0 0.737 0.001z" />
<glyph unicode="&#xe91c;" glyph-name="bs_completed-73" d="M512-37.44c268.101 0 485.44 217.339 485.44 485.44s-217.339 485.44-485.44 485.44c-268.101 0-485.44-217.339-485.44-485.44 0.182-268.027 217.412-485.257 485.422-485.44zM512 901.44c250.428 0 453.44-203.012 453.44-453.44s-203.012-453.44-453.44-453.44c-250.428 0-453.44 203.012-453.44 453.44 0.182 250.355 203.085 453.258 453.422 453.44zM802.56 630.4l-22.080 23.36-387.52-366.080-166.4 166.72-22.72-22.72 188.48-188.48 410.24 387.2z" />
<glyph unicode="&#xe91d;" glyph-name="bs_cover" d="M911.36 26.56h62.4v62.4h-32v-30.4h-30.4v-32zM352 64h128v-32h-128v32zM736 64h128v-32h-128v32zM160 64h128v-32h-128v32zM544 64h128v-32h-128v32zM112.64 58.56h-30.4v30.4h-32v-62.4h62.4v32zM64 416h32v-128h-32v128zM64 608h32v-128h-32v128zM64 224h32v-128h-32v128zM112.64 747.84h-62.4v-62.4h32v30.4h30.4v32zM348.48 752.64l-26.88 20.8-20.8-37.44h-172.8v-32h189.76l30.72 48.64zM624.96 832l21.12-28.8 26.56 16.64-30.4 44.16h-260.48l-30.4-44.16 26.56-16.64 21.12 28.8h225.92zM896 736h-172.8l-20.8 34.56-26.88-15.040 30.72-51.52h189.76v32zM973.76 747.84h-62.4v-32h30.4v-30.4h32v62.4zM928 448h32v-128h-32v128zM928 256h32v-128h-32v128zM928 640h32v-128h-32v128zM192 832v32h-128v-32h128zM727.36 369.92c2.036 11.343 3.2 24.399 3.2 37.727 0 0.011 0 0.023 0 0.034-0.13 22.887-3.748 44.885-10.348 65.55l-4.372 13.808-32-9.6 4.8-15.36c5.224-16.469 8.234-35.41 8.234-55.054 0-11.415-1.017-22.593-2.964-33.448l-2.39-14.538 32-5.44zM566.4 619.84l-10.24-30.4 15.040-5.12c29.148-9.946 54.023-25.85 74.215-46.375l11.225-11.545 22.72 22.4-11.2 11.52c-23.611 24.067-52.665 42.708-85.175 53.936zM696.32 288l-25.6 19.2-9.6-12.8c-17.892-23.423-40.602-42.242-66.738-55.186l-15.502-7.534 14.080-28.8 15.040 7.68c31.66 15.444 58.103 37.074 78.668 63.504zM295.040 373.76c4.739-34.341 17.713-64.981 36.854-90.768l8.586-12.592 26.56 17.6-8.96 13.12c-16.344 23.109-27.698 50.877-31.888 80.939l-0.112 24.981c-0.001 0.178-0.001 0.389-0.001 0.599 0 30.867 7.574 59.965 20.966 85.537l4.955 13.704-29.12 14.72-8.64-14.080c-15.757-29.002-25.368-63.365-26.235-99.892l-0.005-23.628h5.12zM484.16 592l15.68 2.24-4.8 32-15.040-2.56c-36.472-5.441-68.987-19.148-96.639-39.16l-12.161-8.52 18.56-25.92 13.12 9.28c22.895 16.478 50.417 28.028 80.253 32.513zM523.2 188.48v32h-16c-31.173 0.593-60.298 8.82-85.75 22.881l-13.13 7.199-14.4-26.56 14.080-7.68c28.689-15.77 62.731-25.387 98.941-26.235l16.259-0.005z" />
<glyph unicode="&#xe91e;" glyph-name="bs_dimension" d="M704 896h-384v-896h384v896zM672 32h-320v160h96v32h-96v128h128v32h-128v128h96v32h-96v128h128v32h-128v160h320v-832z" />
<glyph unicode="&#xe91f;" glyph-name="bs_dining" d="M570.88 492.48c11.836 13.079 19.109 30.482 19.2 49.581 0 43.053-34.886 77.939-77.92 77.939s-77.92-34.886-77.92-77.92c0.084-18.813 7.37-35.908 19.241-48.685-188.6-26.256-335.401-175.784-357.297-363.452l-64.184-1.943v-20.16c0-77.231 62.609-139.84 139.84-139.84h680.32c77.231 0 139.84 62.609 139.84 139.84v20.16h-64c-22.464 189.115-168.977 338.136-354.924 364.227zM512 586.56c25.273 0 45.76-20.487 45.76-45.76s-20.487-45.76-45.76-45.76c-25.273 0-45.76 20.487-45.76 45.76s20.487 45.76 45.76 45.76zM512 467.2c196.835-0.112 359.31-147.080 383.797-337.266l-767.797-1.934c24.69 192.12 187.165 339.088 383.988 339.2zM852.16 0h-680.32c-1.773-0.11-3.845-0.172-5.931-0.172-54.299 0-98.696 42.395-101.895 95.891l895.987 0.282c-3.213-53.777-47.61-96.172-101.909-96.172-2.087 0-4.158 0.063-6.214 0.186zM480 896h32v-128h-32v128zM320 864h32v-160h-32v160zM672 864h32v-160h-32v160zM250.24 211.52l28.48-14.72c30.945 59.394 82.068 104.704 144.087 127.413l-9.047 30.667c-71.566-26.043-128.867-76.804-162.745-141.728z" />
<glyph unicode="&#xe920;" glyph-name="bs_earning" d="M736 686.72c-70.692 0-128-57.308-128-128s57.308-128 128-128c70.692 0 128 57.308 128 128s-57.308 128-128 128zM736 462.72c-53.019 0-96 42.981-96 96s42.981 96 96 96c53.019 0 96-42.981 96-96-0.722-52.466-43.422-94.72-95.991-94.72-0.003 0-0.006 0-0.009 0zM422.72 909.76c-70.692 0-128-57.308-128-128s57.308-128 128-128c70.692 0 128 57.308 128 128s-57.308 128-128 128zM422.72 685.76c-53.019 0-96 42.981-96 96s42.981 96 96 96c53.019 0 96-42.981 96-96-0.543-52.605-43.313-95.040-95.995-95.040-0.002 0-0.003 0-0.005 0zM32 91.52c-0.23-1.337-0.362-2.876-0.362-4.446 0-9.622 4.938-18.090 12.418-23.010l133.544-0.064c8.482 3.21 14.404 11.265 14.404 20.703 0 0.147-0.001 0.293-0.004 0.439l198.080-91.222c18.661-5.716 40.11-9.007 62.329-9.007 1.6 0 3.197 0.017 4.789 0.051 19.235 0.331 37.933 2.996 55.792 7.723l472.611 172.433c6.264 2.788 10.552 8.957 10.552 16.127 0 1.663-0.231 3.272-0.662 4.797-21.226 59.862-77.473 102.056-143.574 102.056-1.94 0-3.871-0.036-5.794-0.108l-212.203 0.008c-21.098 20.645-50.005 33.384-81.887 33.384-6.337 0-12.557-0.503-18.622-1.472l-124.452 0.088c-39.015 58.279-104.588 96.133-179.002 96.133-2.658 0-5.304-0.048-7.939-0.144l-30.019 0.011v32c0 8.96-5.44 0-14.4 0h-133.44c-8.96 0-12.16 8.96-12.16 0v-356.48zM192 384h30.4c0.548 0.005 1.195 0.009 1.843 0.009 67.374 0 126.916-33.528 162.853-84.81 3.128-5.918 7.944-9.79 13.727-11.171l133.577-0.028c0.925 0.027 2.014 0.042 3.107 0.042 56.73 0 103.829-41.236 112.96-95.369l-294.306-0.673c-8.837 0-16-7.163-16-16s7.163-16 16-16h312c9.143 1.583 16.009 9.456 16.009 18.933 0 0.206-0.003 0.412-0.010 0.617-2.348 28.447-10.965 54.481-24.458 77.288l186.699-0.838c2.254 0.151 4.885 0.238 7.537 0.238 45.829 0 85.642-25.76 105.749-63.59l-456.006-168.647c-13.801-3.48-29.646-5.478-45.956-5.478-19.78 0-38.873 2.937-56.868 8.399l-208.855 99.159v257.92zM64 416h96v-320h-96v320z" />
<glyph unicode="&#xe921;" glyph-name="bs_engines" d="M124.48 352h42.24c6.261-27.582 16.192-51.949 29.436-74.108l-30.396-30.852c-16.030-18.036-25.823-41.926-25.823-68.104 0-56.731 45.989-102.72 102.72-102.72 25.859 0 49.486 9.555 67.544 25.328l31.879 29.657c21.005-12.716 45.365-22.752 71.261-28.786l1.699-42.574c0-53.019 42.981-96 96-96s96 42.981 96 96v42.88c27.58 6.243 51.95 16.176 74.101 29.433l30.859-30.393c18.659-18.439 44.319-29.83 72.64-29.83s53.981 11.39 72.65 29.84c18.527 18.425 30 43.948 30 72.15s-11.473 53.725-30.006 72.155l-29.765 32.005c13.055 21.272 23.314 45.956 29.429 72.232l42.571 1.688c53.019 0 96 42.981 96 96s-42.981 96-96 96h-42.24c-6.243 27.58-16.176 51.95-29.433 74.101l30.393 30.859c16.030 18.036 25.823 41.926 25.823 68.104 0 56.731-45.989 102.72-102.72 102.72-25.859 0-49.486-9.555-67.544-25.328l-31.879-29.657c-21.299 12.566-46.008 22.403-72.243 28.171l-1.677 42.549c0 53.019-42.981 96-96 96s-96-42.981-96-96v-42.24c-27.584-6.285-51.948-16.214-74.118-29.44l-30.842 30.4c-18.624 18.515-44.296 29.96-72.64 29.96s-54.016-11.445-72.645-29.965c-18.532-18.43-30.005-43.953-30.005-72.155s11.473-53.725 30.006-72.155l29.765-32.005c-12.696-21.292-22.639-45.996-28.486-72.244l-42.554-1.676c-53.019 0-96-42.981-96-96s42.981-96 96-96zM124.48 512h67.52l3.2 15.040c8.354 32.649 20.307 61.303 35.741 87.672l5.539 9.928-48 47.36c-12.735 12.735-20.611 30.328-20.611 49.76 0 38.865 31.506 70.371 70.371 70.371 19.432 0 37.025-7.877 49.76-20.611l47.040-47.040 10.56 6.4c25.237 14.567 54.434 26.527 85.277 34.363l17.123 2.757v67.52c0 35.346 28.654 64 64 64s64-28.654 64-64v-67.52l15.040-3.2c32.648-8.349 61.303-20.303 87.67-35.74l9.93-5.54 47.36 48c12.738 12.728 30.33 20.599 49.76 20.599s37.022-7.872 49.76-20.6c12.709-12.686 20.572-30.225 20.572-49.6s-7.862-36.913-20.571-49.599l-47.041-47.361 6.4-10.56c14.57-25.145 26.529-54.234 34.364-84.97l2.756-17.43h66.88c35.346 0 64-28.654 64-64s-28.654-64-64-64h-66.88l-3.2-15.040c-8.331-32.645-20.285-61.302-35.737-87.661l-5.543-9.939 48-47.36c12.735-12.735 20.611-30.328 20.611-49.76 0-38.865-31.506-70.371-70.371-70.371-19.432 0-37.025 7.877-49.76 20.611l-47.040 47.040-10.56-6.4c-25.239-14.589-54.438-26.551-85.289-34.367l-17.111-2.753v-66.88c0-35.346-28.654-64-64-64s-64 28.654-64 64v66.88l-15.040 3.2c-32.645 8.331-61.302 20.285-87.661 35.737l-9.939 5.543-47.36-48c-12.773-12.651-30.354-20.468-49.76-20.468s-36.987 7.817-49.766 20.473c-12.704 12.681-20.566 30.22-20.566 49.595s7.862 36.913 20.571 49.599l47.041 47.041-6.4 10.56c-14.563 25.236-26.523 54.433-34.362 85.274l-2.758 17.446h-67.52c-35.346 0-64 28.654-64 64s28.654 64 64 64zM512 302.72c80.236 0 145.28 65.044 145.28 145.28s-65.044 145.28-145.28 145.28c-80.236 0-145.28-65.044-145.28-145.28s65.044-145.28 145.28-145.28zM512 560.96c62.563 0 113.28-50.717 113.28-113.28s-50.717-113.28-113.28-113.28c-62.563 0-113.28 50.717-113.28 113.28 0 0.112 0 0.225 0 0.337 0 62.546 50.717 113.263 113.28 113.263z" />
<glyph unicode="&#xe922;" glyph-name="bs_experience" d="M480 0c238.58 0.243 431.893 193.706 431.893 432.32 0 59.934-12.196 117.019-34.242 168.91l-28.372-15.31c19.513-45.502 30.86-98.458 30.86-154.063 0-220.914-179.086-400-400-400s-400 179.086-400 400c0 220.914 179.086 400 400 400 79.1 0 152.838-22.96 214.912-62.579l15.348 28.162c-65.304 41.758-144.949 66.56-230.386 66.56-238.587 0-432-193.413-432-432 0-238.582 193.405-431.992 431.985-432zM331.2 571.2l-22.4-22.4 171.2-171.52 491.2 491.52-22.4 22.4-468.8-468.48-148.8 148.48z" />
<glyph unicode="&#xe923;" glyph-name="bs_features-and-extras" d="M773.44 694.4l69.76 66.24-22.4 21.12-78.080-70.080c-60.848 55.336-141.632 89.702-230.418 91.196l-0.302 125.124h-32v-125.12c-83.018-8.405-156.953-41.856-215.527-92.573l-67.673 72.093-20.48-22.72 72.96-77.44c-56.44-61.591-91.302-143.763-92.159-234.067l-125.121-0.173v-32h125.44c9.244-82.701 42.918-156.179 93.535-214.569l-73.375-68.631 22.4-21.12 64 72.96c58.355-50.317 132.681-83.603 214.443-91.4l1.557-125.24h32v125.12c89.323 1.697 170.224 36.409 231.302 92.397l75.898-71.917 24.64 22.72-71.040 77.44c57.833 61.14 94.018 143.281 95.993 233.852l123.207 0.388v32h-125.44c-9.177 82.818-42.862 156.417-93.536 214.89zM512 124.16c-178.852 0-323.84 144.988-323.84 323.84s144.988 323.84 323.84 323.84c178.852 0 323.84-144.988 323.84-323.84-0.182-178.778-145.061-323.658-323.822-323.84zM512 576h-32v-128h-96v-32h96v-96h32v96h128v32h-128v128z" />
<glyph unicode="&#xe924;" glyph-name="bs_fishing" d="M199.040 274.56l17.6 26.56-120.64 80.64v-173.76c0.552-123.293 100.628-223.029 223.998-223.029 88.451 0 164.928 51.266 201.338 125.706 37.169-75.995 112.573-129.557 200.949-134.331 128.253 3.443 231.216 104.512 237.691 231.066l0.024 178.508-103.36-85.76 20.48-24.64 50.88 42.56v-110.080c-5.975-109.857-95.063-197.052-205.158-199.994-89.84 0.678-164.751 62.574-185.287 145.876 3.857 17.126 6.3 35.304 6.445 54.028l0.001 483.611c49.895 12.153 86.355 56.457 86.355 109.278 0 62.033-50.287 112.32-112.32 112.32s-112.32-50.287-112.32-112.32c0-59.91 46.904-108.864 105.994-112.145l0.291-480.013c0-5.44 0-10.56 0-16h-10.56c0.098-11.958 1.492-23.539 4.048-34.676-23.097-81.21-97.36-140.59-185.493-140.59-105.556 0-191.216 85.18-191.995 190.552v114.314zM437.44 800c0 44.183 35.817 80 80 80s80-35.817 80-80c0-44.183-35.817-80-80-80s-80 35.817-80 80z" />
<glyph unicode="&#xe925;" glyph-name="bs_front" d="M64 298.56v-16c0-0.077 0-0.169 0-0.261 0-11.22 1.048-22.196 3.052-32.834l2.709-14.585 32 5.76-1.92 15.36c-1.965 7.783-3.337 16.877-3.825 26.204l-0.015 16.356h-32zM107.52 227.84l-27.84-15.68 8-14.080c17.729-30.558 43.667-54.643 74.808-69.632l15.432-7.488 14.080 27.84-14.4 7.040c-26.415 12.752-47.668 32.667-61.718 57.232zM389.12 216l-14.080 25.92-14.080-25.92c-4.574-8.395-9.452-15.621-14.926-22.341l-7.154-9.019-8.32-7.36c-18.829-16.343-42.372-27.733-68.33-31.896l-16.47-2.664 5.44-32 15.68 2.56c33.020 5.531 62.005 19.862 85.3 40.476l8.78 7.844h1.92l7.36 9.28 3.84 5.12 3.84-5.12 11.2-10.88 24.64 20.16-10.24 12.48c-5.215 6.785-10.006 14.443-14.034 22.547zM523.52 142.72c-3.443-0.301-7.449-0.472-11.495-0.472-26.204 0-50.728 7.191-71.707 19.707l-13.118 7.965-16.32-27.52 13.76-8.32c24.899-15.078 54.984-24 87.152-24 0.073 0 0.146 0 0.219 0h30.389l-2.56 32zM663.040 216l-14.080 25.92-14.080-25.92c-4.574-8.264-9.449-15.384-14.913-22l-7.167-8.72-9.92-8.96 9.28-13.12 11.84-10.88 10.56 9.6 10.24 12.48 3.84 5.12 3.84-5.12 10.56-14.4 24.64 20.16-10.24 12.48c-5.217 6.785-10.009 14.443-14.035 22.548zM811.2 111.040l-1.6 32h-16c-2.13-0.116-4.622-0.182-7.131-0.182-27.737 0-53.592 8.057-75.353 21.958l-12.876 8.303-17.28-26.88 13.44-8.64c25.821-16.659 57.363-26.56 91.218-26.56 0.106 0 0.212 0 0.318 0h9.264zM960 282.56v5.44h-32v-5.44c-0.248-9.432-1.401-18.455-3.377-27.166l-2.383-10.594-4.16-10.56c-9.46-25.268-25.108-46.376-45.14-62.172l-12.78-10.148 19.84-25.28 12.48 9.92c25.059 19.865 44.268 46.084 55.297 76.242l4.543 12.398v3.52l2.88 11.84c2.431 9.365 4.144 20.312 4.78 31.547zM760.505 267.453l24.399 56.736 29.397-12.642-24.399-56.736-29.397 12.642zM635.415 550.525l15.377 28.063 112.253-61.508-15.377-28.063-112.253 61.508zM466.88 635.2l15.040-28.16 25.28 13.44 72-39.36 15.36 28.16-87.040 47.68-40.64-21.76zM803.52 458.24l31.68-17.28-24.96-57.92 29.44-12.48 36.48 84.48-57.28 31.36-15.36-28.16zM298.039 544.054l112.68 60.723 15.181-28.17-112.68-60.723-15.181 28.17zM178.682 367.116l28.199 15.127 60.506-112.796-28.199-15.127-60.506 112.796zM384 800h128v-32h-128v32zM247.36 686.4l31.68-4.8 13.76 86.4h27.2v32h-54.72l-17.92-113.6zM755.085 584.34l31.761 3.905 12.771-103.858-31.761-3.905-12.771 103.858zM731.677 774.65l31.761 3.9 15.599-127.046-31.761-3.9-15.599 127.046zM576 800h128v-32h-128v32zM218.24 501.12l-86.4-46.72 16.32-31.040 28.48 15.040-1.6 3.2 81.6 43.84-6.4 12.48 18.88 120.32-31.68 5.12-19.2-122.24z" />
<glyph unicode="&#xe926;" glyph-name="bs_full-day" d="M816.96 448c0 168.425-136.535 304.96-304.96 304.96s-304.96-136.535-304.96-304.96c0-168.425 136.535-304.96 304.96-304.96 168.351 0.182 304.778 136.608 304.96 304.942zM239.040 448c0 150.752 122.208 272.96 272.96 272.96s272.96-122.208 272.96-272.96c0-150.752-122.208-272.96-272.96-272.96-150.679 0.182-272.778 122.282-272.96 272.943zM480 64h32v-96h-32v96zM480 928h32v-96h-32v96zM161.32 776.323l22.631 22.623 76.241-76.268-22.631-22.623-76.241 76.268zM763.638 173.58l22.627 22.627 76.254-76.254-22.627-22.627-76.254 76.254zM161.322 119.823l76.241 76.268 22.631-22.623-76.241-76.268-22.631 22.623zM764.030 722.348l76.254 76.254 22.627-22.627-76.254-76.254-22.627 22.627zM32 448h96v-32h-96v32zM896 448h96v-32h-96v32z" />
<glyph unicode="&#xe927;" glyph-name="bs_gas" d="M256 480h320v288h-320v-288zM288 736h256v-224h-256v224zM768 240c0.772-48.892 40.587-88.23 89.59-88.23 2.256 0 4.492 0.083 6.706 0.247 1.623-0.164 3.859-0.247 6.115-0.247 49.003 0 88.818 39.338 89.589 88.157l0.001 481.993-130.24 67.52-14.72-28.48 60.8-32c-2.712-5.005-4.448-10.904-4.795-17.172-0.062-1.098-0.095-2.257-0.095-3.423 0-32.26 25.124-58.651 56.873-60.675l0.177-407.689c-0.891-31.294-26.471-56.322-57.898-56.322-2.149 0-4.272 0.117-6.36 0.345-1.572-0.228-3.694-0.345-5.844-0.345-31.427 0-57.007 25.029-57.896 56.24l-0.002 245.842c0.543 5.034 0.852 10.873 0.852 16.785 0 37.327-12.338 71.773-33.159 99.481-16.642 16.070-38.572 27.529-63.015 31.483l-0.678 191.13c0.18 2.204 0.283 4.77 0.283 7.36 0 53.019-42.981 96-96 96-0.099 0-0.199 0-0.298 0h-329.265c-54.72 0-118.72-42.56-118.72-103.36v-690.56l-96-32v-134.080h704v131.2l-64 32v471.36c15.52-3.197 28.878-10.924 39.003-21.72 15.942-22.769 25.452-50.99 25.452-81.433 0-4.015-0.165-7.991-0.49-11.922l0.034-247.485zM902.080 712.32c-0.112 0.481-0.176 1.033-0.176 1.6s0.064 1.119 0.186 1.649l25.91-11.569v-24.32c-12.797 6.678-22.234 18.312-25.843 32.289zM736 79.68v-79.68h-640v78.080l96 32v714.56c0 39.36 45.76 71.36 86.72 71.36h329.28c0.126 0.001 0.275 0.001 0.425 0.001 35.346 0 64-28.654 64-64 0-2.594-0.154-5.152-0.454-7.665l0.030-711.376z" />
<glyph unicode="&#xe928;" glyph-name="bs_general-info" d="M512 936.96c-270.045 0-488.96-218.915-488.96-488.96s218.915-488.96 488.96-488.96c270.045 0 488.96 218.915 488.96 488.96-0.182 269.972-218.989 488.778-488.943 488.96zM512-8.64c-252.372 0-456.96 204.588-456.96 456.96s204.588 456.96 456.96 456.96c252.372 0 456.96-204.588 456.96-456.96 0-0.112 0-0.225 0-0.337-0.182-252.281-204.661-456.76-456.942-456.943zM608 256h-64v240c0 8.837-7.163 16-16 16h-80c-8.837 0-16-7.163-16-16s7.163-16 16-16h64v-224h-96c-8.837 0-16-7.163-16-16s7.163-16 16-16h192c8.837 0 16 7.163 16 16s-7.163 16-16 16zM528 592c8.837 0 16 7.163 16 16v64c0 8.837-7.163 16-16 16s-16-7.163-16-16v-64c0-8.837 7.163-16 16-16z" />
<glyph unicode="&#xe929;" glyph-name="bs_guests" d="M64 192v-160h736v160c-1.011 36.602-20.218 68.508-48.864 87.107l-12.256 8.893h221.12v167.040c0.177 2.215 0.278 4.796 0.278 7.401 0 35.223-18.477 66.13-46.267 83.559l-73.372 47.281c14.641 22.047 23.361 49.128 23.361 78.246 0 0.167 0 0.334-0.001 0.5v57.574c-0.799 87.756-72.124 158.589-159.994 158.589-75.031 0-138-51.646-155.295-121.328-34.387 32.274-81.133 52.891-132.694 52.979-0.020 0-0.023 0-0.027 0-106.039 0-192-85.961-192-192 0-0.675 0.003-1.349 0.010-2.023l-0.001-88.857c0-0.057 0-0.126 0-0.194 0-53.033 21.253-101.102 55.707-136.154l-175.387-120.613c-24.76-18.191-40.651-47.198-40.651-79.916 0-2.845 0.12-5.663 0.356-8.447zM896 518.72c19.487-12.444 32.223-33.959 32.223-58.448 0-1.954-0.081-3.889-0.24-5.802l0.017-134.47h-224v-8.96l-145.6 96c30.421 33.826 49.166 78.683 49.599 127.911l0.001 25.369c27.456-23.116 62.759-37.714 101.415-39.348 43.867 0.181 83.155 18.148 111.356 46.999zM576 736c4.59 64.098 57.718 114.359 122.584 114.359 1.905 0 3.799-0.043 5.683-0.129-0.204 0.010-0.13 0.010-0.055 0.010 68.103 0 123.784-53.187 127.772-120.289l0.017-57.952c-2.306-65.345-55.833-117.442-121.529-117.442-0.25 0-0.5 0.001-0.749 0.002-40.117 2.32-75.465 21.136-99.631 49.712l-2.091 0.207v21.44c-0.011 41.153-12.819 79.312-34.659 110.717l2.659-0.637zM256 536.96v88.96c0 88.366 71.634 160 160 160s160-71.634 160-160v-88.96c0-88.366-71.634-160-160-160s-160 71.634-160 160zM122.24 253.44l182.4 125.76c30.914-22.905 69.805-36.665 111.909-36.665 44.879 0 86.106 15.632 118.535 41.749l198.035-131.804c20.338-12.975 33.88-35.044 34.876-60.337l0.004-128.143h-672v128c-0.267 2.259-0.419 4.876-0.419 7.529 0 21.908 10.384 41.39 26.5 53.793z" />
<glyph unicode="&#xe92a;" glyph-name="bs_half-day" d="M544 768h-17.6c-168 0-304.96-152-304.96-320s136.64-320 304.96-320h17.6v640zM512 175.68c-142.161 3.107-256.215 119.085-256.215 261.701 0 3.734 0.078 7.451 0.233 11.147-0.155 2.64-0.233 6.356-0.233 10.090 0 142.617 114.054 258.594 255.926 261.696l0.289-543.995zM512 64h32v-96h-32v96zM512 928h32v-96h-32v96zM175.438 776.038l22.631 22.623 76.241-76.268-22.631-22.623-76.241 76.268zM175.663 120.087l76.241 76.268 22.631-22.623-76.241-76.268-22.631 22.623zM32 448h128v-32h-128v32z" />
<glyph unicode="&#xe92b;" glyph-name="bs_happy-dude" d="M364.16 18.88c5.522-6.011 11.267-11.553 17.328-16.733 34.433-30.431 79.607-48.872 129.088-48.872 0.501 0 1.001 0.002 1.5 0.006h12.723c54.15 3.443 101.873 28.402 135.169 66.338l74.751 80.542c98.953 110.707 159.888 257.226 161.278 417.953l0.002 48.607c-1.483 102.032-45.037 193.608-114.047 258.38-67.462 63.891-158.53 103.067-258.749 103.067-3.94 0-7.866-0.061-11.776-0.181l0.572 0.014c-3.241 0.1-7.052 0.157-10.876 0.157-100.377 0-191.576-39.3-259.048-103.352-69.039-64.798-112.592-156.374-114.073-258.136l-0.003-150.67h16.32c17.48-124.031 71.28-233.135 150.139-318.817zM268.8 802.56c60.138 57.931 142.055 93.617 232.308 93.617 3.83 0 7.646-0.064 11.445-0.192l-0.552 0.015c3.247 0.113 7.062 0.177 10.892 0.177 90.252 0 172.17-35.686 232.412-93.717 42.517-41.391 73.935-94.186 89.31-153.446-247.495-258.294-554.375 29.706-557.255 31.306-7.514 7.447-17.86 12.049-29.28 12.049s-21.766-4.602-29.283-12.052c-25.958-29.198-46.385-63.97-59.227-102.224 2.575 86.902 40.164 166.542 99.177 224.414zM160 437.76c-0.004 0.64-0.007 1.397-0.007 2.154 0 84.3 31.556 161.229 83.499 219.62 2.193 1.469 5.304 2.55 8.668 2.55s6.475-1.081 9.005-2.915c90.835-85.089 372.115-253.729 593.235-46.369 3.714-12.649 7.067-28.232 9.371-44.155l0.229-50.245c-1.526-152.828-59.533-291.821-154.104-397.372l-71.816-79.428c-30.675-34.36-75.097-55.889-124.547-55.889-42.093 0-80.542 15.599-109.883 41.332-5.206 4.513-10.116 9.322-14.72 14.411l-78.85 80.146c-69.767 85.681-121.864 188.65-149.018 301.34l-1.062 14.82zM608 402.24c1.643 7.719 8.27 13.472 16.29 13.759l1.95 0.001c2.582 1.62 5.721 2.58 9.084 2.58 0.294 0 0.587-0.007 0.877-0.022 0.956-1.172 2.257-2.060 3.74-2.542l32.059-0.017c-2.746 9.729-7.258 18.181-13.214 25.397-6.441 4.64-14.628 7.493-23.481 7.493-2.984 0-5.893-0.324-8.692-0.939l0.267 0.049c-26.071-0.739-47.363-20.268-50.849-45.484l-0.031-18.516h32v18.24zM384 402.24c-0.003 0.105-0.005 0.23-0.005 0.354 0 7.087 5.485 12.892 12.441 13.403l0.044 0.003c2.294 1.614 5.146 2.579 8.223 2.579 0.259 0 0.517-0.007 0.773-0.020 0.89-1.12 2.073-1.995 3.426-2.538l32.058-0.021c-2.746 9.729-7.258 18.181-13.214 25.397-6.441 4.64-14.628 7.493-23.481 7.493-2.984 0-5.893-0.324-8.692-0.939l0.267 0.049c-24.364-0.711-43.845-20.631-43.845-45.102 0-0.231 0.002-0.462 0.005-0.693v-18.205h32v18.24zM384 266.56c-0.262-3.711-0.411-8.042-0.411-12.407 0-27.233 5.805-53.111 16.246-76.462l-4.955 1.19 6.4-12.48c13.874-22.148 32.796-39.942 55.221-52.094l2.379-0.386c6.835-3.497 14.816-6.56 23.145-8.767l3.735-0.193c7.848-1.936 16.883-3.097 26.172-3.199 9.114 0.16 17.809 1.317 26.154 3.367l3.674-0.167c8.507 2.34 15.84 5.177 22.804 8.647l4.396 2.233c8.109 3.772 15.036 7.826 21.538 12.442l2.142-0.282c5.472 5.433 10.511 11.284 15.072 17.508l3.488 3.932c4.005 4.802 7.905 10.126 11.463 15.69l8.057 12.79h-7.040c10.525 22.702 16.664 49.274 16.664 77.28 0 3.997-0.125 7.964-0.371 11.899l0.027 20.902h-256v-21.44zM587.2 170.56c-3.437-4.042-6.993-7.699-10.777-11.109l-5.863-5.211c-2.972-2.348-6.314-4.67-9.794-6.788-3.006-0.252-5.566-3.772-8.126-5.052-3.125-1.519-6.94-3.038-10.87-4.3l-8.33-3.060c-6.245-1.62-13.414-2.551-20.8-2.551s-14.555 0.93-21.396 2.68l-4.204 1.471c-5.719 1.593-10.607 3.447-15.279 5.681l-6.161 3.919c-4.178 2.471-7.729 4.902-11.115 7.536-3.225 2.060-6.146 4.166-8.958 6.403l-6.807 6.861-2.56 3.2c21.633 13.249 47.82 21.094 75.84 21.094s54.207-7.846 76.484-21.46zM619.2 257.6c-0.121-20.765-5.81-40.177-15.648-56.848-26.396 17.366-58.863 27.357-93.663 27.357-33.72 0-65.249-9.38-92.12-25.674-7.865 15.513-12.971 33.573-12.971 52.826 0 0.26 0.001 0.52 0.003 0.78l215.36-0.040z" />
<glyph unicode="&#xe92c;" glyph-name="bs_helm" d="M613.44 377.92l-28.16 15.040-7.68-14.080c-12.959-25.601-35.756-44.635-63.289-52.311l-9.991-6.569h-9.92c-29.446 1.823-55.197 16.233-72.157 37.864l-10.403 14.616-24.64-20.48 10.24-16c22.945-28.38 57.149-46.871 95.716-48.63l11.164-0.010v4.48l15.68 5.76c37.013 8.306 67.376 31.752 84.786 63.339zM369.28 444.16l-2.56-15.68 32-5.12 2.56 15.68c5.001 27.964 21.526 51.316 44.383 65.362l13.537 7.598-16.64 27.52-13.76-8.32c-30.856-18.997-52.785-49.956-59.402-86.257zM535.040 544l-15.040 5.12-10.24-30.4 15.040-6.72c26.409-9.375 47.084-29.214 57.368-54.399l5.992-15.361 29.76 11.84-5.76 14.72c-13.671 35.232-41.456 62.389-76.228 74.919zM165.76 487.040l32-7.68 3.84 15.68c7.529 31.846 19.092 59.924 34.36 85.536l7.56 12.384-27.52 15.040-8.32-13.76c-16.439-26.707-29.625-57.633-37.91-90.507zM794.56 389.44c-3.716-32.481-12.070-62.125-24.441-89.567l-5.639-12.833 29.12-12.8 6.4 13.76c12.754 27.962 21.999 60.398 26.086 94.421l2.074 17.579-32 3.52zM789.12 580.8l-7.68 14.080-28.16-15.040 7.68-14.080c13.592-24.765 24.134-53.492 30.090-83.862l3.19-17.578 32 6.080-2.88 15.68c-7.154 35.673-19.013 67.381-35.104 96.419zM355.84 727.68c-32.257-15.101-59.996-33.73-84.436-55.927l-71.404 73.207-22.72-22.72 90.56-90.56 10.24 10.24 3.2-3.52 11.84 10.56c21.879 19.555 46.982 36.158 74.286 48.82l16.594 6.22-13.76 32zM756.8 216.32l-24 21.12-10.88-13.44c-19.87-22.246-42.621-41.331-67.806-56.847l-14.114-9.073 16.96-27.2 13.76 8.32c17.803 11.316 33.279 23.231 47.604 36.381l70.156-70.621 21.76 23.040-70.080 70.080 6.4 6.080zM395.84 104.64c24.966-8.197 53.775-13.389 83.647-14.386l0.513-90.254h32v90.56c23.627 0.121 46.415 3.502 68.004 9.714l13.276 3.406-8.32 32-15.68-3.84c-22.511-5.956-48.356-9.376-74.999-9.376-32.050 0-62.943 4.949-91.958 14.125l-13.202 4.211-8.96-32zM480 864v-106.88s-18.24 0-26.88-1.92l-16.32-1.92 3.84-32 15.68 1.92c10.975 1.427 23.669 2.241 36.554 2.241 0.312 0 0.623 0 0.934-0.001 2.424 0.107 5.324 0.168 8.238 0.168 15.892 0 31.361-1.81 46.213-5.235l14.301-2.612 5.76 32-14.72 2.88c-13.76 2.56-41.6 3.84-41.6 4.48v106.88h-32zM718.080 672c-20.387 18.827-43.397 35.304-68.299 48.723l-16.181 6.957-14.72-28.48 14.080-7.36c28.204-14.297 52.44-31.585 73.711-51.945l11.409-11.095 90.56 90.56-22.72 22.72zM64 416h96v-8.96c2.335-36.583 9.999-70.689 22.239-102.525l4.961-13.635 29.76 10.88-5.76 14.72c-10.265 25.98-17.13 56.050-19.155 87.439l5.395 16.881-5.44-0.96v28.16h-128v-32zM200 100.8l73.28 73.28c9.586-8.598 20.019-16.897 30.928-24.566l14.192-9.674 18.24 26.24-13.12 8.96c-25.951 17.608-48.203 38.13-67.067 61.5l-9.733 13.060-25.28-19.84 9.92-12.48c5.76-7.36 12.48-13.76 18.88-20.8l-72.96-73.28zM800 448h128v-32h-128v32z" />
<glyph unicode="&#xe92d;" glyph-name="bs_helm1" d="M512 194.24c40.64 0 79.040-2.24 112.96 29.76v0c5.846 1.488 10.91 4.268 15.071 8.027l-0.031-0.027c68.368 43.819 113.028 119.409 113.028 205.43 0 134.316-108.884 243.2-243.2 243.2s-243.2-108.884-243.2-243.2c0-134.316 108.884-243.2 243.2-243.2 0.764 0 1.526 0.004 2.288 0.011zM512 211.52c-37.809 0.027-73.4 9.498-104.549 26.182l65.189 113.018c11.084-5.188 24.069-8.216 37.76-8.216s26.676 3.028 38.32 8.45l63.44-113.834c-29.026-15.636-63.433-25.046-99.988-25.598zM439.36 425.6c-0.103 1.436-0.162 3.111-0.162 4.8s0.059 3.364 0.174 5.024c-0.012 40.513 33.011 73.536 73.748 73.536s73.76-33.023 73.76-73.76c0.104-1.436 0.163-3.111 0.163-4.8s-0.059-3.364-0.176-5.023c-3.609-31.677-27.164-57.181-57.746-63.691-4.859-1.015-9.888-1.547-15.042-1.547s-10.183 0.532-15.036 1.544c-31.396 5.768-55.83 31.504-59.65 63.568zM631.36 241.92l-64.96 110.080c15.33 18.261 27.973 39.444 36.918 62.473l132.682 1.527c-6.62-73.038-46.148-135.65-103.454-173.542zM736 448h-131.2c-1.32 26.967-15.802 50.287-37.114 63.806l63.674 114.434c58.519-39.93 98.115-103.876 104.576-177.332zM512 658.56c0.001 0 0.003 0 0.004 0 37.808 0 73.402-9.475 104.539-26.18l-65.184-113.020c-11.084 5.188-24.069 8.216-37.76 8.216s-26.676-3.028-38.32-8.45l-63.44 113.834c29.026 15.636 63.433 25.046 99.988 25.598zM392.32 626.56l64-112.64c-21.449-13.898-35.84-37.113-37.429-63.775l-130.891-0.225c7.137 73.258 46.475 136.075 103.489 174.827zM420.16 416c9.728-23.337 22.325-43.429 37.669-61.069l-64.229-115.571c-58.782 39.182-98.734 102.631-105.53 175.702l131.13 0.938zM48 432c-0.005-0.154-0.008-0.335-0.008-0.517 0-6.748 3.868-12.593 9.509-15.438l70.499-0.045v-35.52c3.161-5.693 9.138-9.482 16-9.482s12.839 3.789 15.953 9.389l0.047 35.613h9.92c1.194-118.562 65.73-221.786 161.338-277.569l-11.258-20.671-36.48 22.080c-1.426 0.937-3.173 1.495-5.052 1.495-3.439 0-6.442-1.871-8.045-4.651-0.82-1.386-1.291-3-1.291-4.725 0-3.476 1.911-6.506 4.74-8.096l36.847-21.144-34.24-59.2c-0.809-1.377-1.287-3.034-1.287-4.802 0-3.538 1.913-6.628 4.762-8.293 0.766-0.218 1.593-0.329 2.445-0.329s1.68 0.111 2.467 0.32c-0.065-0.015-0.063-0.015-0.061-0.015 3.535 0 6.623 1.91 8.289 4.755l34.265 59.245 36.8-21.12c0.72-0.2 1.546-0.316 2.4-0.316s1.68 0.115 2.465 0.331c-0.062-0.015-0.058-0.015-0.054-0.015 5.302 0 9.6 4.298 9.6 9.6 0 3.539-1.915 6.631-4.765 8.295l-36.846 21.145 12.16 21.12c47.075-25.979 103.192-41.266 162.88-41.266s115.805 15.287 164.651 42.159l10.389-22.013-36.8-21.12c-2.896-1.689-4.811-4.781-4.811-8.32 0-5.302 4.298-9.6 9.6-9.6 0.004 0 0.008 0 0.011 0 0.719-0.2 1.546-0.316 2.399-0.316s1.68 0.115 2.465 0.331l36.735 21.105 34.24-59.2c1.691-2.89 4.779-4.8 8.314-4.8 0.002 0 0.004 0 0.006 0s0.004 0 0.006 0c5.302 0 9.6 4.298 9.6 9.6 0 1.767-0.478 3.423-1.311 4.845l-34.215 59.155 36.8 21.12c2.893 1.691 4.805 4.782 4.805 8.32 0 5.305-4.3 9.605-9.605 9.605-1.767 0-3.423-0.477-4.845-1.31l-36.435-22.375-12.8 18.24c97.195 56.568 161.755 159.819 162.879 278.24l9.921 0.16v-35.52c3.161-5.693 9.138-9.482 16-9.482s12.839 3.789 15.953 9.389l0.047 35.613h70.4c5.693 3.161 9.482 9.138 9.482 16s-3.789 12.839-9.389 15.953l-70.493 0.047v36.48c-3.161 5.693-9.138 9.482-16 9.482s-12.839-3.789-15.953-9.389l-0.047-36.573h-9.92c-1.143 118.667-65.685 222.006-161.339 277.888l11.259 20.992 36.48-21.76c1.363-0.888 3.002-1.467 4.766-1.598 0.259-0.021 0.521-0.033 0.786-0.033 5.125 0 9.28 4.155 9.28 9.28 0 3.652-2.11 6.812-5.178 8.326l-36.854 21.144 34.24 59.2c0.962 1.495 1.534 3.321 1.534 5.28 0 5.442-4.412 9.854-9.854 9.854-3.483 0-6.544-1.807-8.296-4.535l-34.264-60.519-36.8 21.12c-1.377 0.808-3.033 1.285-4.8 1.285-5.305 0-9.605-4.3-9.605-9.605 0-3.538 1.912-6.629 4.76-8.295l36.845-21.145-12.16-21.12c-47.075 25.979-103.192 41.266-162.88 41.266s-115.805-15.287-164.651-42.159l-10.389 22.013 36.8 21.12c2.893 1.691 4.805 4.782 4.805 8.32 0 5.305-4.3 9.605-9.605 9.605-1.767 0-3.423-0.477-4.845-1.31l-36.755-21.095-34.24 60.48c-1.691 2.893-4.782 4.805-8.32 4.805-5.305 0-9.605-4.3-9.605-9.605 0-1.767 0.477-3.423 1.31-4.845l34.215-60.435-36.8-21.12c-2.893-1.691-4.805-4.782-4.805-8.32 0-5.305 4.3-9.605 9.605-9.605 1.767 0 3.423 0.477 4.845 1.31l36.435 21.095 12.8-18.56c-97.149-56.76-161.668-160.071-162.879-278.547l-9.921-0.173v36.48c-3.161 5.693-9.138 9.482-16 9.482s-12.839-3.789-15.953-9.389l-0.047-36.573h-70.4c-5.739-2.89-9.608-8.735-9.608-15.483 0-0.182 0.003-0.363 0.008-0.543zM342.4 710.080c5.44 3.52 10.88 6.72 16.32 9.92 44.319 24.367 97.125 38.703 153.28 38.703s108.961-14.335 154.96-39.546c4.080-2.357 9.2-5.557 14.64-9.077 89.978-56.212 149.802-153.397 153.268-264.783 0.012-3.697 0.012-6.897 0.012-10.097s0-6.4 0-9.6c-3.365-112.007-63.217-209.331-151.923-264.808-6.797-3.992-11.917-7.512-17.677-10.712-44.313-24.394-97.12-38.746-153.28-38.746s-108.967 14.352-154.955 39.588c-5.045 2.358-9.525 5.878-14.645 9.078-93.019 57.688-154.043 159.237-154.043 275.040s61.024 217.352 152.669 274.245z" />
<glyph unicode="&#xe92e;" glyph-name="bs_horsepower" d="M480 3.84c247.424 0 448 200.576 448 448s-200.576 448-448 448c-247.424 0-448-200.576-448-448s200.576-448 448-448zM480 35.84c-0.106 0-0.233 0-0.359 0-223.673 0-406.116 176.526-415.612 397.862l315.171 4.378c7.115-49.499 49.237-87.12 100.146-87.12 49.542 0 90.762 35.627 99.439 82.658l317.215 4.782c-7.464-223.894-190.759-402.56-415.783-402.56-0.076 0-0.153 0-0.229 0zM410.56 451.84c-0.012 0.476-0.018 1.037-0.018 1.6 0 38.351 31.089 69.44 69.44 69.44s69.44-31.089 69.44-69.44c0-38.344-31.079-69.429-69.421-69.44-0.003 0-0.005 0-0.008 0-38.013 0-68.892 30.544-69.433 68.429zM239.040 649.92l21.44 23.68-77.12 70.4c68.153 69.484 160.385 115.135 263.168 123.424l1.472-99.424h32v101.12c116.22-0.218 221.222-48.061 296.568-125.046l-78.328-72.074 21.44-23.68 78.4 71.36c56.518-67.506 92.14-154.213 95.974-249.107l-315.174-4.333c-4.425 30.399-21.827 56.018-46.301 71.434l93.021 224.246-29.44 12.48-93.44-224c-7.173 1.935-15.428 3.096-23.937 3.199-49.618-0.163-90.794-35.835-99.487-82.895l-315.296-4.145c3.029 96.969 38.789 185.041 96.534 254.096z" />
<glyph unicode="&#xe92f;" glyph-name="bs_insurance" d="M995.2 802.24l-17.92-2.24c-26.785-4.879-57.612-7.67-89.091-7.67-142.003 0-270.744 56.781-364.758 148.876l-11.431 11.753-11.2-12.16c-94.321-91.096-222.784-147.373-364.389-147.84-1.308-0.010-2.747-0.016-4.186-0.016-30.2 0-59.8 2.566-88.594 7.493l-14.831 3.723v-21.44c-3.84-53.76-13.44-535.36 474.56-837.44l4.16-9.28h8.96l3.84 9.28c488.96 302.4 478.72 783.68 475.84 837.12zM512-15.36c-147.114 90.964-265.241 215.857-345.634 364.186 27.663-0.092 53.829-14.542 73.587-35.176 21.328-22.14 51.165-35.86 84.207-35.86s62.879 13.72 84.125 35.774c25.215 26.127 60.493 42.328 99.555 42.328s74.34-16.201 99.481-42.251l2.919-3.241c20.95-20.889 49.86-33.804 81.787-33.804 33.027 0 62.826 13.822 83.928 35.996 21.841 22.707 51.309 37.847 84.257 41.278-82.498-153.434-200.843-278.34-344.064-366.844zM518.72 576l-9.6 7.36-9.6-7.36c-83.058-64.283-143.492-154.251-169.549-257.874-2.593 11.135-3.752 27.895-3.89 44.898 0.228 146.157 71.824 275.367 181.754 354.813 112.832-79.474 184.613-208.99 184.644-355.272-0.25-17.297-1.521-34.034-3.758-50.464-26.373 109.257-86.834 199.465-168.928 263.099zM654.4 320c-8.021 3.68-14.895 8.404-20.825 14.103l-2.535 2.857c-31.001 32.449-74.614 52.621-122.938 52.621-49.25 0-93.607-20.953-124.642-54.432-5.613-5.492-11.937-10.079-18.863-13.664 25.185 89.424 75.98 164.987 143.756 220.624 69.754-55.88 120.813-131.919 145.614-219.018zM878.4 388.8v0c-0.055 0-0.119 0-0.184 0-48.282 0-91.834-20.252-122.625-52.725-8.75-8.944-19.489-15.761-31.515-19.756 1.241 13.62 2.396 29.814 2.64 46.229-0.773 161.641-82.68 303.655-206.978 387.753l-10.618 7.138-8.96-6.080c-125.043-85.72-206.028-227.797-206.080-388.792 0.221-17.061 1.377-33.593 3.422-49.849-13.704 6.335-25.224 13.513-34.447 22.946-29.465 30.79-70.398 50.368-115.905 51.848-54.725 111.267-86.971 241.995-87.947 380.156 23.060-3.114 49.69-5.091 76.778-5.11 0.296-0.001 0.623-0.001 0.95-0.001 144.691 0 276.492 55.19 375.5 145.667 97.69-90.586 229.14-145.876 373.504-145.876 27.824 0 55.168 2.054 81.89 6.018-3.943-138.717-36.075-269.341-92.717-385.849z" />
<glyph unicode="&#xe930;" glyph-name="bs_left-arrow" d="M512 936c-269.515 0-488-218.485-488-488s218.485-488 488-488c269.515 0 488 218.485 488 488-0.182 269.441-218.558 487.817-487.982 488zM512-7.68c-251.842 0-456 204.158-456 456s204.158 456 456 456c251.842 0 456-204.158 456-456 0-0.112 0-0.225 0-0.337-0.182-251.751-204.232-455.801-455.983-455.983zM448 451.84l172.8 172.8c2.907 2.907 4.705 6.924 4.705 11.36 0 8.873-7.193 16.065-16.065 16.065-4.436 0-8.453-1.798-11.36-4.705l-195.2-195.2 199.36-199.36c2.907-2.907 6.924-4.705 11.36-4.705 8.873 0 16.065 7.193 16.065 16.065 0 4.436-1.798 8.453-4.705 11.36z" />
<glyph unicode="&#xe931;" glyph-name="bs_left-side" d="M627.52 448.32l-7.040-31.040 125.12-27.52 3.84 17.92 36.48-26.56 18.88 25.92-38.72 28.16-15.040-20.8 1.6 6.72-125.12 27.2zM433.204 457.785l6.806 31.268 125.071-27.224-6.806-31.268-125.071 27.224zM512 256h128v-32h-128v32zM704 256h128v-32h-128v32zM171.84 353.6l-11.84 11.84-23.68-21.44 10.56-11.84c22.271-24.981 48.006-46.233 76.593-63.184l16.527-8.176 16 27.2-13.76 8c-27.109 15.999-50.311 35.125-70.153 57.319zM326.4 263.36l-15.68 3.84-6.080-32 15.36-3.2c20.482-4.631 44.168-7.521 68.445-7.995l59.555-0.005v32h-58.88c-22.467 0.456-44.055 3.114-64.891 7.767zM53.44 505.92c10.769-35.236 23.591-65.551 39.089-94.206l6.031-11.714 29.44 16-7.68 14.080c-13.119 26.132-25.112 56.938-34.258 88.946l-5.102 23.054 7.040-3.2 8-3.52 92.48-23.36 3.52 32-112.32 24-41.28 8 3.52-22.4s0-5.76 3.2-16l3.52-15.68 9.92 2.24-9.92-2.88zM992 270.72v100.16l-47.36 13.12h-2.24l-126.080 25.28-7.68-30.72 123.84-26.56h4.8l22.72-6.72v-89.28h-64v-32h96v46.72zM284.8 522.88l-32.64 7.040-6.72-31.040 125.12-27.2 6.72 31.040-55.040 12.16 6.72 6.72-22.4 22.72-21.76-21.44zM307.942 545.789l90.982 90.035 22.509-22.746-90.982-90.035-22.509 22.746zM440.32 673.6l-33.6-31.68 21.76-22.72 9.6 12.48 9.92-9.28 106.24-75.2 23.36 25.92-97.6 73.92v0.32l-39.68 26.24zM608.726 509.523l18.782 25.908 103.633-75.128-18.782-25.908-103.633 75.128z" />
<glyph unicode="&#xe932;" glyph-name="bs_location" d="M512-48c4.392 0.065 8.346 1.889 11.197 4.797 15.043 15.363 370.243 376.003 370.243 605.443 0.013 1.146 0.020 2.501 0.020 3.857 0 208.719-169.201 377.92-377.92 377.92-1.245 0-2.488-0.006-3.73-0.018-0.957 0.014-2.313 0.021-3.67 0.021-208.719 0-377.92-169.201-377.92-377.92 0-1.357 0.007-2.712 0.021-4.066-0.002-229.554 355.198-590.194 370.238-605.234 2.906-2.963 6.952-4.8 11.427-4.8 0.033 0 0.066 0 0.098 0zM512 912c1.052 0.012 2.294 0.018 3.538 0.018 191.223 0 346.24-155.017 346.24-346.24 0-1.244-0.007-2.486-0.020-3.727 0.002-194.371-287.998-506.691-349.758-571.011-61.44 64-349.76 376.64-349.76 571.2-0.012 1.052-0.018 2.294-0.018 3.538 0 191.223 155.017 346.24 346.24 346.24 1.244 0 2.486-0.007 3.727-0.020zM642.24 562.24c0 71.93-58.31 130.24-130.24 130.24s-130.24-58.31-130.24-130.24c0-71.93 58.31-130.24 130.24-130.24 71.857 0.182 130.059 58.384 130.24 130.223zM413.76 562.24c0 54.256 43.984 98.24 98.24 98.24s98.24-43.984 98.24-98.24c0-54.256-43.984-98.24-98.24-98.24s-98.24 43.984-98.24 98.24z" />
<glyph unicode="&#xe933;" glyph-name="bs_master" d="M271.68 99.2l89.28-149.12 133.44 283.84h33.6l134.72-283.84 89.28 149.12 171.84-26.24-140.48 291.52c47.059 58.773 75.52 134.213 75.52 216.301 0 191.93-155.59 347.52-347.52 347.52s-347.52-155.59-347.52-347.52c0-82.088 28.461-157.528 76.054-216.991l-139.734-290.83zM868.8 113.92l-132.8 20.16-69.76-116.16-104.32 219.2c78.541 11.616 147.001 48.096 198.65 101.048zM196.8 580.8c0 174.257 141.263 315.52 315.52 315.52s315.52-141.263 315.52-315.52c0-174.257-141.263-315.52-315.52-315.52-0.112 0-0.225 0-0.337 0-174.054 0.182-315.139 141.154-315.503 315.165zM262.4 339.52c51.538-53.325 119.878-90.119 196.472-101.837l-101.112-219.763-69.76 116.16-133.12-20.16zM387.84 395.84l123.84 64 120.32-68.16-20.16 140.16 100.8 96-139.84 19.84-60.8 129.6-60.48-128-140.16-16 100.48-100.48zM381.12 608l91.84 10.56 39.040 83.52 39.040-82.88 92.16-13.12-64-64 13.12-91.84-80.32 45.76-81.6-42.24 16 90.24z" />
<glyph unicode="&#xe934;" glyph-name="bs_max-speed-1" d="M512 512c-35.346 0-64-28.654-64-64s28.654-64 64-64c35.346 0 64 28.654 64 64s0 1.92 0 2.88l157.44 183.68c2.046 3.402 3.256 7.507 3.256 11.896 0 12.901-10.459 23.36-23.36 23.36-4.388 0-8.494-1.21-12.002-3.315l-185.814-154.501h-3.52zM506.56-16.96c253.786 0 459.52 205.734 459.52 459.52s-205.734 459.52-459.52 459.52c-253.786 0-459.52-205.734-459.52-459.52 0.364-253.639 205.88-459.156 459.485-459.52zM506.56 870.080c236.113 0 427.52-191.407 427.52-427.52s-191.407-427.52-427.52-427.52c-236.113 0-427.52 191.407-427.52 427.52 0.364 235.966 191.554 427.156 427.485 427.52zM506.56 120.64c177.813 0.206 321.878 144.399 321.878 322.24 0 36.876-6.194 72.305-17.599 105.304-1.523 4.138-7.494 8.655-14.519 8.655-8.858 0-16.039-7.181-16.039-16.039 0-1.832 0.307-3.593 0.873-5.233 9.703-27.658 15.328-59.676 15.328-93.007 0-160.118-129.802-289.92-289.92-289.92s-289.92 129.802-289.92 289.92c0 160.118 129.801 289.919 289.918 289.92 8.32 0 16.64 0 24.64 0 0.383-0.033 0.829-0.051 1.28-0.051 8.865 0 16.051 7.186 16.051 16.051 0 8.414-6.474 15.316-14.713 15.996-9.018 0.004-18.298 0.004-27.258 0.004-177.792 0-321.92-144.128-321.92-321.92s144.128-321.92 321.92-321.92z" />
<glyph unicode="&#xe935;" glyph-name="bs_max-speed-2" d="M576 437.44s0 2.24 0 3.52c-2.116 33.628-29.907 60.1-63.881 60.1-35.346 0-64-28.654-64-64s28.654-64 64-64c0.971 0 1.937 0.022 2.898 0.064l3.383-0.005 192-147.52c4.176-3.911 9.808-6.313 16-6.313 12.942 0 23.433 10.491 23.433 23.433 0 6.749-2.853 12.832-7.42 17.108zM965.44 466.24c-12.946 243.389-213.453 435.84-458.909 435.84-253.786 0-459.52-205.734-459.52-459.52 0-253.571 205.386-459.172 458.875-459.52h24.034c243.585 13.13 436.129 213.846 436.129 459.532 0 8.325-0.221 16.598-0.658 24.815zM528.32 15.68c-8.992-0.674-19.478-1.058-30.054-1.058-236.113 0-427.52 191.407-427.52 427.52 0 231.265 183.627 419.641 413.033 427.279l22.78 0.018c231.854-5.491 417.708-194.745 417.708-427.407 0-225.002-173.817-409.407-394.5-426.264zM489.92 764.16c-171.556-7.833-307.678-148.822-307.678-321.605 0-177.792 144.128-321.92 321.92-321.92 0.618 0 1.236 0.002 1.853 0.005h16.865c37.298 1.839 72.233 9.781 104.547 22.847 3.818 1.653 7.948 7.4 7.948 14.113 0 8.845-7.17 16.014-16.014 16.014-2.132 0-4.167-0.417-6.027-1.173-31.62-12.944-68.44-20.48-107.020-20.48-160.118 0-289.92 129.802-289.92 289.92s129.802 289.92 289.92 289.92c154.814 0 281.287-121.345 289.496-274.111 0.031-9.050 0.031-17.37 0.031-25.37-0.008-0.195-0.013-0.423-0.013-0.652 0-8.616 6.811-15.642 15.342-15.987l0.031-0.001c0.001 0 0.002 0 0.003 0 8.724 0 15.817 6.982 15.997 15.663 0 8.977 0 18.257 0 27.537-9.245 170.712-149.924 305.637-322.116 305.637-5.333 0-10.637-0.129-15.907-0.385z" />
<glyph unicode="&#xe936;" glyph-name="bs_menu" d="M64 736h896c8.837 0 16 7.163 16 16s-7.163 16-16 16h-896c-8.837 0-16-7.163-16-16s7.163-16 16-16zM64 448h896c8.837 0 16 7.163 16 16s-7.163 16-16 16h-896c-8.837 0-16-7.163-16-16s7.163-16 16-16zM64 128h896c8.837 0 16 7.163 16 16s-7.163 16-16 16h-896c-8.837 0-16-7.163-16-16s7.163-16 16-16z" />
<glyph unicode="&#xe937;" glyph-name="bs_messages" d="M512 938.56c-270.929 0-490.56-219.631-490.56-490.56s219.631-490.56 490.56-490.56c270.929 0 490.56 219.631 490.56 490.56-0.182 270.855-219.704 490.378-490.542 490.56zM512-10.24c-253.256 0-458.56 205.304-458.56 458.56s205.304 458.56 458.56 458.56c253.256 0 458.56-205.304 458.56-458.56 0-0.113 0-0.225 0-0.338-0.182-253.164-205.377-458.36-458.542-458.542zM770.24 523.84c0 123.52-122.24 224-272.32 224s-273.92-100.8-273.92-224 122.24-224 272.32-224h19.52c35.82-59.725 100.18-99.102 173.746-99.2 0.072 0 0.139 0 0.207 0 9.752 0 19.34 0.698 28.719 2.047 6.738 1.020 12.666 7.674 12.666 15.713 0 4.771-2.088 9.055-5.401 11.986-28.656 26.24-48.213 61.969-53.679 102.177-0.245 3.364-0.328 6.271-0.328 9.198s0.084 5.834 0.249 8.72c58.376 36.567 96.907 100.324 98.219 173.168zM645.12 372.48c-4.574-2.818-7.597-7.767-7.68-13.428-0.010-0.755-0.016-1.633-0.016-2.512 0-9.729 0.704-19.294 2.063-28.646 5.336-35.722 20.014-68.349 41.47-95.348-61.221 4.336-113.045 39.735-140.031 90.376-3.148 6.054-8.428 9.508-14.52 9.558h-0.007c-8.96 0-17.92 0-27.2 0-132.48 0-240.32 86.080-240.32 192s107.84 192 240.32 192 240.32-86.080 240.32-192c-2.441-65.566-39.562-121.936-93.465-151.53z" />
<glyph unicode="&#xe938;" glyph-name="bs_other-photo" d="M960 32h-32v-32h64v64h-32v-32zM768 32h128v-32h-128v32zM576 32h128v-32h-128v32zM352 32h160v-32h-160v32zM160 32h128v-32h-128v32zM32 0h64v32h-32v32h-32v-64zM32 416h32v-128h-32v128zM32 768h32v-128h-32v128zM32 576h32v-128h-32v128zM32 224h32v-128h-32v128zM32 832h32v32h32v32h-64v-64zM736 896h128v-32h-128v32zM512 896h160v-32h-160v32zM128 896h128v-32h-128v32zM320 896h128v-32h-128v32zM928 864h32v-32h32v64h-64v-32zM960 800h32v-128h-32v128zM960 256h32v-128h-32v128zM960 352.96l-65.6 58.88-18.24-24.64 97.92-77.44 7.040 10.24h10.88v128h-32v-95.040zM960 608h32v-128h-32v128zM488.32 701.12l-12.8 9.92-19.52-25.28 12.8-9.92c16.611-12.88 27.2-32.84 27.2-55.273 0-0.031 0-0.061 0-0.092 0.23-2.107 0.361-4.556 0.361-7.035s-0.131-4.929-0.387-7.34l-3.174-15.38 32-6.4 3.2 15.68c1.222 5.983 1.922 12.86 1.922 19.9 0 0.204-0.001 0.408-0.002 0.611-0.429 33.011-16.59 62.19-41.321 80.412zM320 608h32v12.16c0.31 28.125 16.771 52.333 40.532 63.814l15.788 7.226-13.76 28.8-16-7.040c-34.877-16.972-58.501-52.12-58.56-92.792v-12.168zM372.8 576l-10.56 12.16-24.32-20.8 10.56-12.16c18.823-21.686 46.431-35.319 77.222-35.319 9.177 0 18.071 1.211 26.532 3.482l14.646 3.997-8 32-15.36-4.16c-5.467-1.51-11.744-2.377-18.224-2.377-20.769 0-39.457 8.913-52.447 23.123zM192.32 372.8l21.12-24.32 40.64 35.52 36.8-29.44 20.16 24.96-57.92 46.4-60.8-53.12zM731.271 510.040l20.479 24.589 98.355-81.917-20.479-24.589-98.355 81.917zM605.181 409.845l80.917 99.179 24.795-20.229-80.917-99.179-24.795 20.229zM340.904 314.567l20.008 24.974 99.895-80.031-20.008-24.974-99.895 80.031zM47.689 246.404l96.427 84.178 21.044-24.107-96.427-84.178-21.044 24.107zM483.8 261.028l80.934 99.165 24.791-20.234-80.934-99.165-24.791 20.234z" />
<glyph unicode="&#xe939;" glyph-name="bs_passengers" d="M64 103.68v-119.68c5.636-9.633 15.931-16 27.713-16 0.045 0 0.089 0 0.134 0h833.913c8.96 0 2.24 7.040 2.24 16v119.68c0.124 1.826 0.194 3.959 0.194 6.108 0 32.631-16.28 61.46-41.162 78.806l-217.913 131.406c60.347 48.945 98.662 123.016 98.88 206.043v125.157c0 141.385-114.615 256-256 256s-256-114.615-256-256v-125.12c-0.066-2.189-0.104-4.765-0.104-7.349 0-79.516 35.674-150.7 91.889-198.421l-226.186-131.51c-31.423-17.077-53.372-48.143-57.553-84.611zM288 526.080v125.12c0 123.712 100.288 224 224 224s224-100.288 224-224v-125.12c0-123.712-100.288-224-224-224s-224 100.288-224 224zM367.36 299.2c39.922-24.704 88.329-39.348 140.157-39.36 0.010 0 0.018 0 0.026 0 51.61 0 99.798 14.65 140.633 40.017l222.865-138.577c15.443-11.808 25.304-30.241 25.304-50.976 0-2.333-0.125-4.637-0.368-6.905l0.025-103.398h-800v103.68c3.191 24.479 17.854 44.962 38.329 56.125z" />
<glyph unicode="&#xe93a;" glyph-name="bs_pending" d="M237.12 368.64c43.829 0 79.36 35.531 79.36 79.36s-35.531 79.36-79.36 79.36c-43.829 0-79.36-35.531-79.36-79.36s35.531-79.36 79.36-79.36zM237.12 496.64c26.149-0.010 47.343-21.21 47.343-47.36 0-26.156-21.204-47.36-47.36-47.36-25.706 0-46.629 20.48-47.341 46.014-0.001 26.222 21.202 47.426 47.359 47.426zM512-32c265.097 0 480 214.903 480 480s-214.903 480-480 480c-265.097 0-480-214.903-480-480 1.086-264.659 215.341-478.914 479.896-480zM512 896c247.424 0 448-200.576 448-448s-200.576-448-448-448c-247.424 0-448 200.576-448 448 1.086 246.986 201.014 446.914 447.896 448zM786.88 368.64c43.829 0 79.36 35.531 79.36 79.36s-35.531 79.36-79.36 79.36c-43.829 0-79.36-35.531-79.36-79.36 0.181-43.756 35.604-79.179 79.343-79.36zM786.88 496.64c26.149-0.010 47.343-21.21 47.343-47.36 0-26.156-21.204-47.36-47.36-47.36-25.706 0-46.629 20.48-47.341 46.014 0.179 26.149 21.275 47.246 47.341 47.426zM512 368.64c43.829 0 79.36 35.531 79.36 79.36s-35.531 79.36-79.36 79.36c-43.829 0-79.36-35.531-79.36-79.36s35.531-79.36 79.36-79.36zM512 496.64c26.149-0.010 47.343-21.21 47.343-47.36 0-26.156-21.204-47.36-47.36-47.36-25.706 0-46.629 20.48-47.341 46.014-0.001 26.222 21.202 47.426 47.359 47.426z" />
<glyph unicode="&#xe93b;" glyph-name="bs_pics-videos" d="M32 0h960v768h-253.44l-87.040 128h-279.040l-87.040-128h-253.44v-768zM64 736h238.4l87.36 128h245.12l87.36-128h237.76v-704h-896v704zM96 896c-8.837 0-16-7.163-16-16s7.163-16 16-16h96c8.837 0 16 7.163 16 16s-7.163 16-16 16h-96zM512 640c-129.367 0-234.24-104.873-234.24-234.24s104.873-234.24 234.24-234.24c129.367 0 234.24 104.873 234.24 234.24-0.182 129.294-104.946 234.058-234.223 234.24zM512 203.52c-111.694 0-202.24 90.546-202.24 202.24s90.546 202.24 202.24 202.24c111.694 0 202.24-90.546 202.24-202.24 0.001-0.285 0.002-0.623 0.002-0.96 0-111.759-90.508-202.379-202.225-202.56z" />
<glyph unicode="&#xe93c;" glyph-name="bs_power" d="M589.44 680.96l-365.44-269.44-182.72-40.96-9.28-2.56v-144h608c300.8 0 357.76 332.16 358.4 335.36l3.84 22.080-256-56zM586.24 640l123.2-122.24-408-89.92zM640 256h-576v86.080l900.8 199.040c-18.56-72.64-96.32-285.12-324.8-285.12z" />
<glyph unicode="&#xe93d;" glyph-name="bs_premium" d="M967.68 765.76c-0.383 8.532-7.393 15.304-15.985 15.304-1.024 0-2.025-0.096-2.995-0.28-25.336-4.76-54.654-7.549-84.602-7.664-132.677 0.338-252.799 53.388-340.67 139.289-2.902 2.62-6.892 4.277-11.268 4.277s-8.366-1.658-11.375-4.38c-87.84-85.872-208.091-138.938-340.737-139.187-29.809 0.031-58.922 2.708-87.194 7.807 2.15-0.295 1.188-0.208 0.206-0.208-3.793 0-7.285-1.294-10.056-3.465-3.506-2.782-5.819-7.006-6.043-11.777-2.561-50.276-11.841-500.196 447.999-784.036 2.46-1.538 5.432-2.48 8.618-2.56 3.123 0.073 5.989 1.018 8.403 2.597 457.859 284.122 448.579 733.722 445.699 784.282zM512 13.76c-401.28 253.44-424.96 636.8-424.32 732.48 21.717-3.242 46.793-5.103 72.301-5.12 136.021 0.397 259.719 52.751 352.377 138.246 91.943-85.495 215.641-137.849 351.562-138.246 25.298 0.052 50.037 1.911 74.228 5.455-1.188-96.015-24.868-479.375-426.148-732.815zM665.28 466.88c15.086 25.53 24 56.259 24 89.070 0 97.909-79.371 177.28-177.28 177.28s-177.28-79.371-177.28-177.28c0-32.811 8.914-63.54 24.451-89.898l-68.931-144.132c-0.994-2.024-1.575-4.405-1.575-6.922 0-8.837 7.163-16 16-16 0.895 0 1.773 0.073 2.628 0.215l71.587 10.547 37.12-53.76c2.88-4.8 8 0 13.76 0v0c5.76 0 11.2-4.16 13.76 0l61.76 128c2.24 0 4.48-2.24 6.72-2.24h6.72l61.12-137.92c2.56-5.44 7.68 14.4 13.76-17.6v0c6.282 2.717 11.284 7.408 14.324 13.28l37.516 66.080 71.68-8.64c0.104-0.002 0.227-0.004 0.35-0.004 9.543 0 17.28 7.737 17.28 17.28 0 2.066-0.363 4.047-1.028 5.884zM427.84 289.92l-27.52 45.44c-2.758 4.734-7.81 7.866-13.594 7.866-0.849 0-1.683-0.068-2.495-0.197l-52.391-7.668 48.32 102.4c23.824-26.212 55.18-45.19 90.639-53.522zM520.96 411.52v0h-16.64c-1.618 0.604-3.488 0.953-5.44 0.953s-3.822-0.349-5.551-0.989c-72.206 9.454-127.481 70.672-127.481 144.8 0 80.589 65.331 145.92 145.92 145.92s145.92-65.331 145.92-145.92c0-28.223-8.013-54.575-21.887-76.905-2.184-1.574-4.006-4.542-4.742-7.916-22.809-32.377-57.791-54.737-98.126-60.493-2.673 0.769-4.892 1.269-7.228 1.269-1.694 0-3.326-0.263-4.858-0.751zM640 343.040c-0.723 0.118-1.557 0.186-2.406 0.186-5.784 0-10.836-3.131-13.554-7.791l-27.56-45.515-44.48 94.080c36.722 8.75 68.081 27.944 91.695 54.236l48.465-102.236zM512 617.6c-34.286 0-62.080-27.794-62.080-62.080s27.794-62.080 62.080-62.080c34.286 0 62.080 27.794 62.080 62.080s-27.794 62.080-62.080 62.080zM512 525.44c-16.613 0-30.080 13.467-30.080 30.080s13.467 30.080 30.080 30.080c16.613 0 30.080-13.467 30.080-30.080s-13.467-30.080-30.080-30.080z" />
<glyph unicode="&#xe93e;" glyph-name="bs_pricing" d="M167.36 928l-135.36-135.36v-328.64l507.2-512 471.040 468.8-514.24 507.2h-328.64zM539.2-5.12l-475.2 482.24v302.4l116.48 116.48h302.4l480-475.2zM309.12 757.12c-58.399-0.363-105.6-47.788-105.6-106.238 0-58.675 47.565-106.24 106.24-106.24s106.239 47.564 106.24 106.238c0 0.001 0 0.001 0 0.002 0 58.675-47.565 106.24-106.24 106.24-0.225 0-0.45-0.001-0.675-0.002zM309.12 576.96c-40.725 0.363-73.599 33.461-73.599 74.237 0 41.002 33.238 74.24 74.24 74.24s74.24-33.238 74.24-74.24c0-0.112 0-0.223-0.001-0.335 0.002-0.174 0.003-0.399 0.003-0.625 0-41.002-33.238-74.24-74.24-74.24-0.226 0-0.452 0.001-0.677 0.003z" />
<glyph unicode="&#xe93f;" glyph-name="bs_promote-your-boat" d="M998.4 496c0 8.837-7.163 16-16 16h-144.96c-8.837 0-16-7.163-16-16s7.163-16 16-16h144.96c8.837 0 16 7.163 16 16zM910.72 781.76l-102.4-102.72c-2.907-2.907-4.705-6.924-4.705-11.36 0-8.873 7.193-16.065 16.065-16.065 4.436 0 8.453 1.798 11.36 4.705l102.72 102.72c2.88 2.92 4.659 6.932 4.659 11.36 0 8.935-7.244 16.179-16.179 16.179-4.507 0-8.584-1.843-11.518-4.817zM910.72 216.64c2.907-2.907 6.924-4.705 11.36-4.705 8.873 0 16.065 7.193 16.065 16.065 0 4.436-1.798 8.453-4.705 11.36l-101.44 102.72c-2.907 2.907-6.924 4.705-11.36 4.705-8.873 0-16.065-7.193-16.065-16.065 0-4.436 1.798-8.453 4.705-11.36zM274.88 378.88c59.2-10.88 195.52-96 356.16-224 9.413-7.86 21.542-12.755 34.802-13.118 0.525-0.010 1.053-0.015 1.582-0.015 10.949 0 21.431 2 31.101 5.654 20.062 8.948 34.786 28.144 37.446 51.021l0.028 204.458c36.694 9.679 63.692 41.561 65.909 80.085-2.217 38.994-29.215 70.877-65.295 80.417l-0.614 202.698c-2.925 23.173-17.872 42.272-38.303 51.041-8.197 3.785-17.307 5.9-26.911 5.9-14.090 0-27.116-4.553-37.688-12.268-159.818-124.993-298.378-216.833-354.698-227.393l-15.040-7.36h-130.24c-1.999 0.142-4.331 0.222-6.682 0.222-55.494 0-100.48-44.986-100.48-100.48 0-36.063 18.999-67.69 47.534-85.415 0.298-0.728 0.224-1.279 0.224-1.847s0.074-1.12 0.213-1.645l60.47-273.235c5.641-27.538 29.017-48.184 57.455-49.594l45.265-0.006c19.066 1.856 35.484 11.828 45.95 26.37 8.247 11.785 13.1 26.184 13.1 41.716 0 5.123-0.528 10.123-1.533 14.948l-51.758 236.966h19.84zM736 530.24c0-6.72 33.92-25.28 33.92-47.040s-33.92-40.32-33.92-47.040v94.080zM650.88 778.24c6.266 4.709 14.176 7.541 22.748 7.541 3.286 0 6.475-0.416 9.516-1.199 9.439-2.133 17.106-9.164 20.159-18.306l0.057-567.556c-2.708-10.509-10.355-18.79-20.257-22.33-3.327-1.731-7.013-2.707-10.927-2.707-5.549 0-10.64 1.962-14.617 5.229-168.28 132.128-305.56 215.008-369.56 227.168v137.92h-7.040c140.93 70.244 262.235 148.169 374.079 237.447zM263.36 141.76c0.441-2.3 0.693-4.945 0.693-7.649 0-7.913-2.159-15.321-5.921-21.668-4.492-7.818-11.908-13.776-20.761-16.38l-45.371-0.063c-13.198 2.203-23.549 12.231-26.204 25.073l-56.676 259.407c8.694 0.369 16.916 1.631 24.811 3.701l76.309-0.181zM256 416h-122.88c-35.346 0-64 28.654-64 64s28.654 64 64 64h122.88v-128z" />
<glyph unicode="&#xe940;" glyph-name="bs_propulsion" d="M772.48 608c36.8 0 148.48-1.92 199.68 64 16.017 22.984 25.591 51.497 25.591 82.247 0 17.677-3.164 34.614-8.956 50.277-21.755 82.196-108.795 132.436-216.315 123.476-139.84-9.6-292.16-113.92-320-324.48-13.148-12.492-23.91-27.349-31.628-43.91-32.372 12.23-46.132 38.15-68.532 77.19-18.56 32-74.56 128-157.12 139.52-3.542 0.305-7.664 0.479-11.827 0.479-44.168 0-83.764-19.581-110.578-50.536-60.955-60.983-61.275-158.263-0.155-248.183 62.526-90.548 165.74-149.127 282.636-149.127 0.761 0 1.521 0.002 2.281 0.007 57.892 0.769 112.779 13.293 162.542 35.288 7.588-3.797 19.371-5.425 31.518-5.528 6.732 0.272 13.011 0.959 19.153 2.044-1.402-33.548-13.387-64.070-33.049-88.055l-8.12-13.829c-18.24-32-74.24-128-42.24-206.080 20.447-41.901 59.078-72.199 105.332-80.819 12.553-3.392 25.926-5.262 39.736-5.262 0.187 0 0.374 0 0.561 0.001 70.051 0 138.531 48.96 178.531 130.88 62.080 128 48 313.6-123.84 442.88-4.848 18.024-12.312 33.805-22.088 47.858 22.305 12.974 48.913 20.953 77.384 20.953 6.906 0 13.702-0.469 20.358-1.378l9.146 0.086zM98.88 496c-51.84 76.48-53.12 158.080-2.88 208 21.632 25.794 53.875 42.078 89.921 42.078 2.138 0 4.263-0.057 6.373-0.17 44.186-5.747 89.306-47.667 134.426-125.747 17.011-39.725 46.797-71.27 84.099-90.093-0.737-8.844-1.744-18.469-1.744-28.329 0-50.507 26.414-94.845 66.181-119.954-33.574-13.913-73.152-21.781-114.569-21.781-107.805 0-203.16 53.31-261.139 135.006zM552.96 390.72c-61.679 0-111.68 50.001-111.68 111.68s50.001 111.68 111.68 111.68c61.679 0 111.68-50.001 111.68-111.68s-50.001-111.68-111.68-111.68zM695.68 495.36c73.173-59.137 119.577-148.88 119.577-249.461 0-48.821-10.933-95.089-30.484-136.488-40.452-82.851-111.492-126.051-179.972-106.851-37.227 6.186-68.045 29.198-84.813 60.805-17.587 42.235-3.827 102.075 40.013 178.235l8.32 14.4c21.361 27.699 34.236 62.897 34.236 101.103 0 3.609-0.115 7.191-0.341 10.742 53.090 19.468 90.701 68.609 93.453 126.874zM647.36 611.2c-24.629 21.948-57.282 35.358-93.067 35.358-23.896 0-46.396-5.98-66.084-16.526 24.476 143.276 140.954 252.88 285.286 265.878 94.345 6.169 166.345-31.911 184.585-101.671 4.699-11.97 7.422-25.831 7.422-40.329 0-23.366-7.075-45.081-19.199-63.117-27.263-34.474-85.823-50.794-173.823-50.794h-9.6c-5.581 0.64-12.048 1.006-18.6 1.006-36.186 0-69.769-11.143-97.506-30.186z" />
<glyph unicode="&#xe941;" glyph-name="bs_recent-messages" d="M512 96c45.43 0.075 89.57 5.436 131.887 15.5l263.633-107.66-26.24 237.12c64.928 62.878 105.69 150.376 107.197 247.4-0.317 217.88-214.077 393.88-476.477 393.88s-475.84-176-475.84-392.32 213.44-393.92 475.84-393.92zM512 850.24c244.8 0 444.16-161.6 444.16-360.32-1.745-91.073-40.97-172.654-102.843-230.218l-5.957-5.622 22.080-199.36-227.2 90.88h-4.8c-37.349-10.221-80.425-16.58-124.821-17.589-245.419-0.011-444.459 163.189-444.459 361.909s199.040 360.32 443.84 360.32zM352 576h320v-32h-320v32zM352 416h192v-32h-192v32z" />
<glyph unicode="&#xe942;" glyph-name="bs_reply" d="M413.12 896l-229.76-229.44 8.64-8.64v-17.92h17.92l203.2-203.2 22.72 22.72-179.84 180.48h256c1.942 0.073 4.224 0.114 6.514 0.114 102.504 0 185.6-83.096 185.6-185.6 0-2.291-0.042-4.572-0.124-6.843l0.009-223.671h32v224c0.082 2.233 0.129 4.856 0.129 7.489 0 119.647-96.993 216.64-216.64 216.64-2.634 0-5.257-0.047-7.868-0.14l-277.702 0.011 201.92 201.92zM96 224v-224h800v32h-768v192h-32z" />
<glyph unicode="&#xe943;" glyph-name="bs_response" d="M512 749.12c165.367-2.31 298.81-135.753 301.118-300.9l32.002-0.22c0.023 1.438 0.036 3.135 0.036 4.836 0 181.326-146.994 328.32-328.32 328.32-1.7 0-3.397-0.013-5.092-0.039 0.020 0.004-0.259 0.004-0.538 0.004-46.999 0-91.715-9.771-132.229-27.391l14.623-28.61c34.672 15.172 75.078 24.001 117.546 24.001 0.3 0 0.6 0 0.901-0.001zM210.88 448c0 0.198-0.001 0.432-0.001 0.666 0 42.423 8.829 82.783 24.75 119.344l-30.189 10.55c-16.79-38.33-26.561-83.001-26.561-129.955 0-0.213 0-0.426 0.001-0.638l32 0.033zM512-35.2c266.864 0 483.2 216.336 483.2 483.2s-216.336 483.2-483.2 483.2c-266.864 0-483.2-216.336-483.2-483.2 0.364-266.717 216.482-482.836 483.165-483.2zM512 899.2c249.191 0 451.2-202.009 451.2-451.2s-202.009-451.2-451.2-451.2c-249.191 0-451.2 202.009-451.2 451.2 0.364 249.044 202.156 450.836 451.165 451.2zM402.56 448c0-60.442 48.998-109.44 109.44-109.44s109.44 48.998 109.44 109.44c0 60.442-48.998 109.44-109.44 109.44-24.168-0.272-46.386-8.405-64.271-21.957l-161.329 160.197-22.72-22.72 161.6-160c-13.878-17.773-22.372-40.342-22.719-64.881zM512 525.44c42.769 0 77.44-34.671 77.44-77.44s-34.671-77.44-77.44-77.44c-42.769 0-77.44 34.671-77.44 77.44s34.671 77.44 77.44 77.44z" />
<glyph unicode="&#xe944;" glyph-name="bs_right-arrow" d="M512 936c-269.515 0-488-218.485-488-488s218.485-488 488-488c269.515 0 488 218.485 488 488-0.182 269.441-218.558 487.817-487.982 488zM512-7.68c-251.842 0-456 204.158-456 456s204.158 456 456 456c251.842 0 456-204.158 456-456 0-0.112 0-0.225 0-0.337-0.182-251.751-204.232-455.801-455.983-455.983zM404.8 647.36c-2.923-2.9-4.733-6.919-4.733-11.36s1.81-8.46 4.732-11.359l172.801-172.801-176.96-176.64c-2.907-2.907-4.705-6.924-4.705-11.36 0-8.873 7.193-16.065 16.065-16.065 4.436 0 8.453 1.798 11.36 4.705l199.36 199.36-195.2 195.2c-2.914 3.020-6.998 4.895-11.519 4.895-4.363 0-8.318-1.746-11.204-4.578z" />
<glyph unicode="&#xe945;" glyph-name="bs_right-side" d="M83.52 384h-4.48l-47.040-13.12v-146.88h96v32h-64v89.28l23.040 6.72h2.24l125.44 25.6-6.4 32.64-124.8-26.24zM459.276 461.986l125.062 27.268 6.817-31.265-125.062-27.268-6.817 31.265zM739.2 522.88l-21.76 21.44-22.4-22.72 6.72-6.72-55.040-12.16 6.72-31.040 125.12 27.2-6.72 31.040-32.64-7.040zM978.88 537.28c2.24 10.24 3.2 16 3.2 16l4.16 22.72-43.2-9.28-108.8-23.68 6.72-32 97.92 21.44h1.92l2.24 3.84-3.52-16c-10.128-34.477-22.099-64.081-36.562-92.193l-6.958-12.127 28.16-16 8.64 16c14.183 25.975 27.004 56.291 36.804 87.936l5.436 18.944-9.6 2.88 9.92-2.24zM768 288l16-27.84 13.76 8c30.061 17.791 55.793 39.040 77.803 63.685l10.837 12.155-22.4 21.44-10.56-11.84c-20.013-22.332-43.106-41.351-68.735-56.542zM635.2 224c24.608 0.436 48.297 3.328 71.147 8.441l13.333 3.399-6.080 32-15.68-4.48c-18.46-4.218-39.823-6.874-61.722-7.354l-60.198-0.006v-32h59.2zM192 256h128v-32h-128v32zM384 256h128v-32h-128v32zM602.497 613.136l22.509 22.746 90.982-90.035-22.509-22.746-90.982 90.035zM292.578 460.489l103.62 75.146 18.787-25.905-103.62-75.146-18.787 25.905zM544 647.36v-0.32l-97.6-73.92 23.36-25.92 106.24 75.2 10.24 9.28 11.52-12.48 21.76 22.72-35.52 31.68-40-26.24zM219.2 407.040l18.88-25.92 36.48 26.56 3.84-17.92 125.12 27.52-7.040 31.040-125.12-27.2 1.6-6.72-15.040 20.8-38.72-28.16z" />
<glyph unicode="&#xe946;" glyph-name="bs_sail" d="M99.2 0h726.72l169.6 192h-952.96zM811.52 32h-688.32l-37.76 128h839.040zM672 288h224l-224 354.24v-354.24zM704 536.64l131.84-216.64h-131.84v216.64zM79.040 288h464.96v632.32zM512 320h-368.96l368.96 504.32v-504.32z" />
<glyph unicode="&#xe947;" glyph-name="bs_search" d="M822.4 536.96c0 0.174 0 0.38 0 0.586 0 221.267-179.373 400.64-400.64 400.64s-400.64-179.373-400.64-400.64c0-221.267 179.373-400.64 400.64-400.64 77.158 0 149.221 21.811 210.361 59.604l240.199-242.91 135.36 135.36-241.92 241.92c35.579 58.252 56.645 128.734 56.645 204.138 0 0.683-0.002 1.365-0.005 2.047zM423.36 169.6c-202.71 0-367.040 164.329-367.040 367.040s164.329 367.040 367.040 367.040c202.598 0 366.857-164.147 367.040-366.702 0-202.793-164.29-367.196-367.023-367.378zM960 88.96l-88.96-88.96-214.72 214.72c34.959 25.463 64.777 55.281 89.445 89.096z" />
<glyph unicode="&#xe948;" glyph-name="bs_sightseeing" d="M928 353.6l-115.84 414.4h-108.16v96h-160v-320h-64v320h-160v-96h-86.080l-137.92-409.28v-198.72h-64v-128h448v480h64v-480h448v128h-64v193.6zM448 64h-384v64h384v-64zM448 544h-128v-32h128v-352h-320v192l128 384h192v-192zM448 768h-96v64h96v-64zM576 832h96v-64h-96v64zM576 512h128v32h-128v192h211.84l108.16-384v-192h-320v352zM960 128v-64h-384v64h384z" />
<glyph unicode="&#xe949;" glyph-name="bs_sleeps" d="M32 64h32v160h896v-160h32v320h-43.2c0.013 0.863 0.021 1.882 0.021 2.903 0 47.355-16.148 90.938-43.238 125.544-18.423 19.317-44.885 31.614-74.219 31.614-1.239 0-2.473-0.022-3.702-0.065l-404.622 0.005c-1.17 0.048-2.544 0.076-3.923 0.076-29.212 0-55.55-12.309-74.108-32.024-25.303-33.103-40.513-75.002-40.513-120.454 0-2.672 0.053-5.332 0.157-7.978l-41.612 0.38c15.48 16.983 24.96 39.67 24.96 64.57 0 53.019-42.981 96-96 96s-96-42.981-96-96c0-24.901 9.48-47.587 25.028-64.646l-57.028 0.076v448h-32v-768zM368.64 489.92c12.819 13.652 30.982 22.156 51.132 22.156 1.149 0 2.292-0.028 3.428-0.082l404.64 0.006c0.949 0.045 2.060 0.071 3.178 0.071 20.277 0 38.569-8.495 51.513-22.121 21.422-28.474 34.289-64.389 34.289-103.31 0-0.929-0.007-1.855-0.022-2.781l-579.838 0.14c-0.098 2.151-0.154 4.673-0.154 7.209 0 37.065 11.935 71.342 32.171 99.199zM192 512c35.346 0 64-28.654 64-64s-28.654-64-64-64c-35.346 0-64 28.654-64 64s28.654 64 64 64zM64 352h896v-96h-896v96z" />
<glyph unicode="&#xe94a;" glyph-name="bs_smart-pricing" d="M992 928h-960v-960h960v960zM960 0h-896v416h201.28l118.72 244.48 256-516.8 138.56 272.32h181.44v-416zM960 448h-200.96l-119.040-232.96-256 518.080-138.88-285.12h-181.12v448h896v-448z" />
</font>
</defs>
</svg>
